<svg width="24" height="25" viewBox="0 0 24 25" fill="none" xmlns="http://www.w3.org/2000/svg">
<g clip-path="url(#clip0_147_9122)">
<path d="M13.586 2.5C14.1164 2.50011 14.625 2.7109 15 3.086L19.414 7.5C19.7891 7.87499 19.9999 8.38361 20 8.914V20.5C20 21.0304 19.7893 21.5391 19.4142 21.9142C19.0391 22.2893 18.5304 22.5 18 22.5H6C5.46957 22.5 4.96086 22.2893 4.58579 21.9142C4.21071 21.5391 4 21.0304 4 20.5V4.5C4 3.96957 4.21071 3.46086 4.58579 3.08579C4.96086 2.71071 5.46957 2.5 6 2.5H13.586ZM12 4.5H6V20.5H18V10.5H13.5C13.1271 10.5 12.7676 10.3611 12.4916 10.1104C12.2156 9.85968 12.0428 9.51516 12.007 9.144L12 9V4.5ZM14.064 13.149C14.1541 12.911 14.3316 12.7162 14.5603 12.6045C14.789 12.4928 15.0517 12.4724 15.2948 12.5477C15.538 12.6229 15.7433 12.788 15.8689 13.0094C15.9946 13.2307 16.0311 13.4917 15.971 13.739L15.936 13.851L14.53 17.601C14.189 18.511 12.942 18.551 12.522 17.721L12.47 17.601L12 16.348L11.53 17.601C11.189 18.511 9.942 18.551 9.522 17.721L9.47 17.601L8.064 13.851C7.9752 13.6123 7.9808 13.3488 8.07965 13.1141C8.17851 12.8794 8.36317 12.6913 8.59597 12.5881C8.82878 12.4849 9.09218 12.4744 9.33246 12.5587C9.57274 12.6431 9.77179 12.8159 9.889 13.042L9.936 13.149L10.5 14.652L10.97 13.399C11.311 12.489 12.558 12.449 12.978 13.279L13.03 13.399L13.5 14.652L14.064 13.149ZM14 4.914V8.5H17.586L14 4.914Z" fill="#1C414F"/>
</g>
<defs>
<clipPath id="clip0_147_9122">
<rect width="24" height="24" fill="white" transform="translate(0 0.5)"/>
</clipPath>
</defs>
</svg>
