<svg width="1220" height="72" viewBox="0 0 1220 72" fill="none" xmlns="http://www.w3.org/2000/svg">
<rect width="1220" height="72" rx="10" fill="white"/>
<path d="M60.2588 30H58.6943V18.7588H51.9092V30H50.3184V17.3174H60.2588V30ZM67.1055 20.7012C69.4346 20.7012 71.0166 22.5645 71.0166 25.4297C71.0166 28.2949 69.4434 30.1582 67.1406 30.1582C65.8311 30.1582 64.7764 29.5166 64.2314 28.5146H64.1963V33.0498H62.667V20.8594H64.1172V22.4062H64.1523C64.7148 21.3779 65.7783 20.7012 67.1055 20.7012ZM66.8066 28.8135C68.4326 28.8135 69.4521 27.5039 69.4521 25.4297C69.4521 23.3643 68.4326 22.0459 66.8066 22.0459C65.2422 22.0459 64.1875 23.3994 64.1875 25.4297C64.1875 27.4688 65.2422 28.8135 66.8066 28.8135ZM76.5098 30.1582C73.9785 30.1582 72.2734 28.3389 72.2734 25.4297C72.2734 22.5117 73.9785 20.7012 76.5098 20.7012C79.0322 20.7012 80.7373 22.5117 80.7373 25.4297C80.7373 28.3389 79.0322 30.1582 76.5098 30.1582ZM76.5098 28.8135C78.127 28.8135 79.1816 27.583 79.1816 25.4297C79.1816 23.2764 78.127 22.0459 76.5098 22.0459C74.8926 22.0459 73.8291 23.2764 73.8291 25.4297C73.8291 27.583 74.8926 28.8135 76.5098 28.8135ZM86.7227 28.8135V22.0459C84.7715 22.0898 83.5322 23.3643 83.5322 25.4297C83.5322 27.4863 84.7715 28.7607 86.7227 28.8135ZM91.3809 25.4297C91.3809 23.373 90.1416 22.0986 88.1992 22.0459V28.8135C90.1416 28.7695 91.3809 27.4951 91.3809 25.4297ZM86.7227 30.1143C83.875 30.0615 81.9941 28.251 81.9941 25.4297C81.9941 22.6084 83.875 20.7891 86.7227 20.7451V17.8535H88.1992V20.7451C91.0293 20.7979 92.9189 22.6084 92.9189 25.4297C92.9189 28.251 91.0293 30.0703 88.1992 30.1143V33.0498H86.7227V30.1143ZM96.1445 30H94.6328V20.8594H96.1445V27.6621H96.2148L100.785 20.8594H102.297V30H100.785V23.1973H100.715L96.1445 30ZM106.885 25.9658C106.7 28.4883 106.094 30.0791 104.169 30.0791C103.905 30.0791 103.729 30.0264 103.624 29.9824V28.6025C103.703 28.6289 103.87 28.6729 104.09 28.6729C104.995 28.6729 105.338 27.6094 105.452 25.9307L105.804 20.8594H111.789V30H110.277V22.1162H107.166L106.885 25.9658ZM116.975 28.8574C118.416 28.8574 119.523 27.8467 119.523 26.5283V25.7812L117.08 25.9307C115.85 26.0098 115.146 26.5547 115.146 27.416C115.146 28.2861 115.876 28.8574 116.975 28.8574ZM116.632 30.1582C114.812 30.1582 113.591 29.0596 113.591 27.416C113.591 25.8516 114.795 24.8672 116.904 24.7441L119.523 24.5947V23.8301C119.523 22.7139 118.785 22.0459 117.52 22.0459C116.342 22.0459 115.604 22.5996 115.41 23.4961H113.934C114.039 21.9141 115.393 20.7012 117.555 20.7012C119.699 20.7012 121.053 21.8613 121.053 23.6807V30H119.603V28.4268H119.567C119.022 29.4727 117.862 30.1582 116.632 30.1582ZM126.265 25.1836L130.659 30H128.69L124.744 25.6055H124.674V30H123.162V20.8594H124.674V24.9023H124.744L128.646 20.8594H130.536L126.265 25.1836ZM138.446 20.8594V22.1162H135.493V30H133.981V22.1162H131.028V20.8594H138.446ZM141.373 30H139.861V20.8594H141.373V27.6621H141.443L146.014 20.8594H147.525V30H146.014V23.1973H145.943L141.373 30ZM152.772 25.1836L157.167 30H155.198L151.252 25.6055H151.182V30H149.67V20.8594H151.182V24.9023H151.252L155.154 20.8594H157.044L152.772 25.1836ZM161.201 28.8574C162.643 28.8574 163.75 27.8467 163.75 26.5283V25.7812L161.307 25.9307C160.076 26.0098 159.373 26.5547 159.373 27.416C159.373 28.2861 160.103 28.8574 161.201 28.8574ZM160.858 30.1582C159.039 30.1582 157.817 29.0596 157.817 27.416C157.817 25.8516 159.021 24.8672 161.131 24.7441L163.75 24.5947V23.8301C163.75 22.7139 163.012 22.0459 161.746 22.0459C160.568 22.0459 159.83 22.5996 159.637 23.4961H158.16C158.266 21.9141 159.619 20.7012 161.781 20.7012C163.926 20.7012 165.279 21.8613 165.279 23.6807V30H163.829V28.4268H163.794C163.249 29.4727 162.089 30.1582 160.858 30.1582ZM177.101 30V25.8867H172.592V30H171.08V20.8594H172.592V24.6299H177.101V20.8594H178.612V30H177.101ZM183.789 28.8574C185.23 28.8574 186.338 27.8467 186.338 26.5283V25.7812L183.895 25.9307C182.664 26.0098 181.961 26.5547 181.961 27.416C181.961 28.2861 182.69 28.8574 183.789 28.8574ZM183.446 30.1582C181.627 30.1582 180.405 29.0596 180.405 27.416C180.405 25.8516 181.609 24.8672 183.719 24.7441L186.338 24.5947V23.8301C186.338 22.7139 185.6 22.0459 184.334 22.0459C183.156 22.0459 182.418 22.5996 182.225 23.4961H180.748C180.854 21.9141 182.207 20.7012 184.369 20.7012C186.514 20.7012 187.867 21.8613 187.867 23.6807V30H186.417V28.4268H186.382C185.837 29.4727 184.677 30.1582 183.446 30.1582ZM194.424 20.7012C196.753 20.7012 198.335 22.5645 198.335 25.4297C198.335 28.2949 196.762 30.1582 194.459 30.1582C193.149 30.1582 192.095 29.5166 191.55 28.5146H191.515V33.0498H189.985V20.8594H191.436V22.4062H191.471C192.033 21.3779 193.097 20.7012 194.424 20.7012ZM194.125 28.8135C195.751 28.8135 196.771 27.5039 196.771 25.4297C196.771 23.3643 195.751 22.0459 194.125 22.0459C192.561 22.0459 191.506 23.3994 191.506 25.4297C191.506 27.4688 192.561 28.8135 194.125 28.8135ZM200.532 33.4189C200.348 33.4189 200.04 33.4014 199.873 33.3662V32.083C200.04 32.1182 200.277 32.127 200.471 32.127C201.323 32.127 201.798 31.7139 202.149 30.6504L202.36 30.0088L198.985 20.8594H200.62L203.151 28.4707H203.178L205.709 20.8594H207.317L203.723 30.6416C202.94 32.7773 202.185 33.4189 200.532 33.4189ZM208.68 30V20.8594H210.191V28.7432H213.566V20.8594H215.078V28.7432H218.453V20.8594H219.965V30H208.68ZM225.783 22.0283C224.351 22.0283 223.349 23.127 223.252 24.6475H228.218C228.183 23.1182 227.225 22.0283 225.783 22.0283ZM228.183 27.3809H229.686C229.422 28.9805 227.875 30.1582 225.88 30.1582C223.261 30.1582 221.67 28.3389 221.67 25.4648C221.67 22.626 223.287 20.7012 225.81 20.7012C228.279 20.7012 229.8 22.4941 229.8 25.2627V25.8428H223.243V25.9307C223.243 27.6797 224.271 28.8311 225.915 28.8311C227.075 28.8311 227.928 28.2422 228.183 27.3809ZM237.517 30V25.8867H233.008V30H231.496V20.8594H233.008V24.6299H237.517V20.8594H239.028V30H237.517ZM242.693 30H241.182V20.8594H242.693V27.6621H242.764L247.334 20.8594H248.846V30H247.334V23.1973H247.264L242.693 30ZM254.277 25.4912H256.026V22.1162H254.277C253.091 22.1162 252.335 22.7666 252.335 23.8652C252.335 24.8145 253.1 25.4912 254.277 25.4912ZM256.026 30V26.748H254.409L252.089 30H250.34L252.889 26.4668C251.597 26.0977 250.814 25.1484 250.814 23.8916C250.814 22.0107 252.168 20.8594 254.269 20.8594H257.538V30H256.026ZM267.83 20.7012C270.159 20.7012 271.741 22.5645 271.741 25.4297C271.741 28.2949 270.168 30.1582 267.865 30.1582C266.556 30.1582 265.501 29.5166 264.956 28.5146H264.921V33.0498H263.392V20.8594H264.842V22.4062H264.877C265.439 21.3779 266.503 20.7012 267.83 20.7012ZM267.531 28.8135C269.157 28.8135 270.177 27.5039 270.177 25.4297C270.177 23.3643 269.157 22.0459 267.531 22.0459C265.967 22.0459 264.912 23.3994 264.912 25.4297C264.912 27.4688 265.967 28.8135 267.531 28.8135ZM277.111 22.0283C275.679 22.0283 274.677 23.127 274.58 24.6475H279.546C279.511 23.1182 278.553 22.0283 277.111 22.0283ZM279.511 27.3809H281.014C280.75 28.9805 279.203 30.1582 277.208 30.1582C274.589 30.1582 272.998 28.3389 272.998 25.4648C272.998 22.626 274.615 20.7012 277.138 20.7012C279.607 20.7012 281.128 22.4941 281.128 25.2627V25.8428H274.571V25.9307C274.571 27.6797 275.6 28.8311 277.243 28.8311C278.403 28.8311 279.256 28.2422 279.511 27.3809ZM288.757 30V22.1162H284.336V30H282.824V20.8594H290.277V30H288.757ZM296.869 20.7012C299.198 20.7012 300.78 22.5645 300.78 25.4297C300.78 28.2949 299.207 30.1582 296.904 30.1582C295.595 30.1582 294.54 29.5166 293.995 28.5146H293.96V33.0498H292.431V20.8594H293.881V22.4062H293.916C294.479 21.3779 295.542 20.7012 296.869 20.7012ZM296.57 28.8135C298.196 28.8135 299.216 27.5039 299.216 25.4297C299.216 23.3643 298.196 22.0459 296.57 22.0459C295.006 22.0459 293.951 23.3994 293.951 25.4297C293.951 27.4688 295.006 28.8135 296.57 28.8135ZM306.273 30.1582C303.742 30.1582 302.037 28.3389 302.037 25.4297C302.037 22.5117 303.742 20.7012 306.273 20.7012C308.796 20.7012 310.501 22.5117 310.501 25.4297C310.501 28.3389 308.796 30.1582 306.273 30.1582ZM306.273 28.8135C307.891 28.8135 308.945 27.583 308.945 25.4297C308.945 23.2764 307.891 22.0459 306.273 22.0459C304.656 22.0459 303.593 23.2764 303.593 25.4297C303.593 27.583 304.656 28.8135 306.273 28.8135ZM318.086 28.7432V22.1162H314.658L314.377 25.9658C314.298 27.0996 314.061 28.0928 313.63 28.6729V28.7432H318.086ZM312.54 32.417H311.116V28.7432H311.881C312.549 28.3037 312.874 27.1611 312.962 25.9307L313.313 20.8594H319.606V28.7432H321.057V32.417H319.633V30H312.54V32.417ZM323.017 33.4189C322.832 33.4189 322.524 33.4014 322.357 33.3662V32.083C322.524 32.1182 322.762 32.127 322.955 32.127C323.808 32.127 324.282 31.7139 324.634 30.6504L324.845 30.0088L321.47 20.8594H323.104L325.636 28.4707H325.662L328.193 20.8594H329.802L326.207 30.6416C325.425 32.7773 324.669 33.4189 323.017 33.4189ZM334.267 25.1836L338.661 30H336.692L332.746 25.6055H332.676V30H331.164V20.8594H332.676V24.9023H332.746L336.648 20.8594H338.538L334.267 25.1836ZM346.448 20.8594V22.1162H343.495V30H341.983V22.1162H339.03V20.8594H346.448ZM349.375 30H347.863V20.8594H349.375V27.6621H349.445L354.016 20.8594H355.527V30H354.016V23.1973H353.945L349.375 30ZM361.372 22.0986H359.184V24.6562H361.144C362.295 24.6562 362.849 24.2344 362.849 23.3555C362.849 22.5469 362.33 22.0986 361.372 22.0986ZM361.267 25.8867H359.184V28.7607H361.539C362.646 28.7607 363.244 28.2598 363.244 27.3369C363.244 26.3613 362.603 25.8867 361.267 25.8867ZM357.672 30V20.8594H361.583C363.297 20.8594 364.343 21.7471 364.343 23.1973C364.343 24.1289 363.684 24.9902 362.84 25.166V25.2363C363.991 25.3945 364.747 26.2295 364.747 27.3721C364.747 28.9893 363.552 30 361.609 30H357.672ZM372.517 30V25.8867H368.008V30H366.496V20.8594H368.008V24.6299H372.517V20.8594H374.028V30H372.517ZM379.979 30.1582C377.447 30.1582 375.742 28.3389 375.742 25.4297C375.742 22.5117 377.447 20.7012 379.979 20.7012C382.501 20.7012 384.206 22.5117 384.206 25.4297C384.206 28.3389 382.501 30.1582 379.979 30.1582ZM379.979 28.8135C381.596 28.8135 382.65 27.583 382.65 25.4297C382.65 23.2764 381.596 22.0459 379.979 22.0459C378.361 22.0459 377.298 23.2764 377.298 25.4297C377.298 27.583 378.361 28.8135 379.979 28.8135ZM391.782 22.1162H387.414V30H385.902V20.8594H391.782V22.1162ZM396.889 30.1582C394.357 30.1582 392.652 28.3389 392.652 25.4297C392.652 22.5117 394.357 20.7012 396.889 20.7012C399.411 20.7012 401.116 22.5117 401.116 25.4297C401.116 28.3389 399.411 30.1582 396.889 30.1582ZM396.889 28.8135C398.506 28.8135 399.561 27.583 399.561 25.4297C399.561 23.2764 398.506 22.0459 396.889 22.0459C395.271 22.0459 394.208 23.2764 394.208 25.4297C394.208 27.583 395.271 28.8135 396.889 28.8135ZM409.554 30.1582C407.55 30.1582 406.1 29.1738 405.941 27.627H407.488C407.664 28.4268 408.42 28.8926 409.554 28.8926C410.881 28.8926 411.619 28.2598 411.619 27.3721C411.619 26.3438 410.934 25.8779 409.554 25.8779H408.183V24.6299H409.554C410.714 24.6299 411.312 24.1904 411.312 23.2939C411.312 22.5293 410.767 21.9756 409.589 21.9756C408.508 21.9756 407.752 22.4414 407.629 23.1709H406.144C406.337 21.6592 407.655 20.7012 409.589 20.7012C411.672 20.7012 412.806 21.7031 412.806 23.1709C412.806 24.1025 412.208 24.9287 411.294 25.1396V25.21C412.498 25.4736 413.122 26.2471 413.122 27.3018C413.122 29.0068 411.698 30.1582 409.554 30.1582ZM420.936 28.7432V22.1162H417.508L417.227 25.9658C417.147 27.0996 416.91 28.0928 416.479 28.6729V28.7432H420.936ZM415.39 32.417H413.966V28.7432H414.73C415.398 28.3037 415.724 27.1611 415.812 25.9307L416.163 20.8594H422.456V28.7432H423.906V32.417H422.482V30H415.39V32.417ZM429.074 30.1582C426.543 30.1582 424.838 28.3389 424.838 25.4297C424.838 22.5117 426.543 20.7012 429.074 20.7012C431.597 20.7012 433.302 22.5117 433.302 25.4297C433.302 28.3389 431.597 30.1582 429.074 30.1582ZM429.074 28.8135C430.691 28.8135 431.746 27.583 431.746 25.4297C431.746 23.2764 430.691 22.0459 429.074 22.0459C427.457 22.0459 426.394 23.2764 426.394 25.4297C426.394 27.583 427.457 28.8135 429.074 28.8135ZM439.445 20.7012C441.774 20.7012 443.356 22.5645 443.356 25.4297C443.356 28.2949 441.783 30.1582 439.48 30.1582C438.171 30.1582 437.116 29.5166 436.571 28.5146H436.536V33.0498H435.007V20.8594H436.457V22.4062H436.492C437.055 21.3779 438.118 20.7012 439.445 20.7012ZM439.146 28.8135C440.772 28.8135 441.792 27.5039 441.792 25.4297C441.792 23.3643 440.772 22.0459 439.146 22.0459C437.582 22.0459 436.527 23.3994 436.527 25.4297C436.527 27.4688 437.582 28.8135 439.146 28.8135ZM448.85 30.1582C446.318 30.1582 444.613 28.3389 444.613 25.4297C444.613 22.5117 446.318 20.7012 448.85 20.7012C451.372 20.7012 453.077 22.5117 453.077 25.4297C453.077 28.3389 451.372 30.1582 448.85 30.1582ZM448.85 28.8135C450.467 28.8135 451.521 27.583 451.521 25.4297C451.521 23.2764 450.467 22.0459 448.85 22.0459C447.232 22.0459 446.169 23.2764 446.169 25.4297C446.169 27.583 447.232 28.8135 448.85 28.8135ZM458.474 22.0986H456.285V24.6562H458.245C459.396 24.6562 459.95 24.2344 459.95 23.3555C459.95 22.5469 459.432 22.0986 458.474 22.0986ZM458.368 25.8867H456.285V28.7607H458.641C459.748 28.7607 460.346 28.2598 460.346 27.3369C460.346 26.3613 459.704 25.8867 458.368 25.8867ZM454.773 30V20.8594H458.685C460.398 20.8594 461.444 21.7471 461.444 23.1973C461.444 24.1289 460.785 24.9902 459.941 25.166V25.2363C461.093 25.3945 461.849 26.2295 461.849 27.3721C461.849 28.9893 460.653 30 458.711 30H454.773ZM466.814 25.0342H465.109V28.7432H466.814C468.001 28.7432 468.766 28.0049 468.766 26.8887C468.766 25.7637 467.992 25.0342 466.814 25.0342ZM463.598 30V20.8594H465.109V23.7773H466.841C468.933 23.7773 470.277 24.9814 470.277 26.8887C470.277 28.7959 468.933 30 466.841 30H463.598ZM475.146 25.4912H476.896V22.1162H475.146C473.96 22.1162 473.204 22.7666 473.204 23.8652C473.204 24.8145 473.969 25.4912 475.146 25.4912ZM476.896 30V26.748H475.278L472.958 30H471.209L473.758 26.4668C472.466 26.0977 471.684 25.1484 471.684 23.8916C471.684 22.0107 473.037 20.8594 475.138 20.8594H478.407V30H476.896ZM491.819 23.6719H490.308C490.044 22.793 489.297 22.0459 488.005 22.0459C486.414 22.0459 485.368 23.3906 485.368 25.4297C485.368 27.5215 486.432 28.8135 488.022 28.8135C489.235 28.8135 490.035 28.2158 490.325 27.2051H491.837C491.538 28.9365 490.07 30.1582 488.014 30.1582C485.474 30.1582 483.812 28.3389 483.812 25.4297C483.812 22.582 485.465 20.7012 487.996 20.7012C490.202 20.7012 491.547 22.1162 491.819 23.6719ZM499.94 20.8594V22.1162H496.987V30H495.476V22.1162H492.522V20.8594H499.94ZM502.12 33.4189C501.936 33.4189 501.628 33.4014 501.461 33.3662V32.083C501.628 32.1182 501.865 32.127 502.059 32.127C502.911 32.127 503.386 31.7139 503.737 30.6504L503.948 30.0088L500.573 20.8594H502.208L504.739 28.4707H504.766L507.297 20.8594H508.905L505.311 30.6416C504.528 32.7773 503.772 33.4189 502.12 33.4189ZM515.98 28.7432V22.1162H512.553L512.271 25.9658C512.192 27.0996 511.955 28.0928 511.524 28.6729V28.7432H515.98ZM510.435 32.417H509.011V28.7432H509.775C510.443 28.3037 510.769 27.1611 510.856 25.9307L511.208 20.8594H517.501V28.7432H518.951V32.417H517.527V30H510.435V32.417ZM523.996 22.0283C522.563 22.0283 521.562 23.127 521.465 24.6475H526.431C526.396 23.1182 525.438 22.0283 523.996 22.0283ZM526.396 27.3809H527.898C527.635 28.9805 526.088 30.1582 524.093 30.1582C521.474 30.1582 519.883 28.3389 519.883 25.4648C519.883 22.626 521.5 20.7012 524.022 20.7012C526.492 20.7012 528.013 22.4941 528.013 25.2627V25.8428H521.456V25.9307C521.456 27.6797 522.484 28.8311 524.128 28.8311C525.288 28.8311 526.141 28.2422 526.396 27.3809ZM535.729 30V25.8867H531.221V30H529.709V20.8594H531.221V24.6299H535.729V20.8594H537.241V30H535.729ZM546.083 20.8594V22.1162H543.13V30H541.618V22.1162H538.665V20.8594H546.083ZM551.119 30.1582C548.588 30.1582 546.883 28.3389 546.883 25.4297C546.883 22.5117 548.588 20.7012 551.119 20.7012C553.642 20.7012 555.347 22.5117 555.347 25.4297C555.347 28.3389 553.642 30.1582 551.119 30.1582ZM551.119 28.8135C552.736 28.8135 553.791 27.583 553.791 25.4297C553.791 23.2764 552.736 22.0459 551.119 22.0459C549.502 22.0459 548.438 23.2764 548.438 25.4297C548.438 27.583 549.502 28.8135 551.119 28.8135ZM560.146 25.1836L564.54 30H562.571L558.625 25.6055H558.555V30H557.043V20.8594H558.555V24.9023H558.625L562.527 20.8594H564.417L560.146 25.1836ZM57.6396 48.6719H56.1279C55.8643 47.793 55.1172 47.0459 53.8252 47.0459C52.2344 47.0459 51.1885 48.3906 51.1885 50.4297C51.1885 52.5215 52.252 53.8135 53.8428 53.8135C55.0557 53.8135 55.8555 53.2158 56.1455 52.2051H57.6572C57.3584 53.9365 55.8906 55.1582 53.834 55.1582C51.2939 55.1582 49.6328 53.3389 49.6328 50.4297C49.6328 47.582 51.2852 45.7012 53.8164 45.7012C56.0225 45.7012 57.3672 47.1162 57.6396 48.6719ZM63.6953 45.7012C66.0244 45.7012 67.6064 47.5645 67.6064 50.4297C67.6064 53.2949 66.0332 55.1582 63.7305 55.1582C62.4209 55.1582 61.3662 54.5166 60.8213 53.5146H60.7861V58.0498H59.2568V45.8594H60.707V47.4062H60.7422C61.3047 46.3779 62.3682 45.7012 63.6953 45.7012ZM63.3965 53.8135C65.0225 53.8135 66.042 52.5039 66.042 50.4297C66.042 48.3643 65.0225 47.0459 63.3965 47.0459C61.832 47.0459 60.7773 48.3994 60.7773 50.4297C60.7773 52.4688 61.832 53.8135 63.3965 53.8135ZM72.9766 47.0283C71.5439 47.0283 70.542 48.127 70.4453 49.6475H75.4111C75.376 48.1182 74.418 47.0283 72.9766 47.0283ZM75.376 52.3809H76.8789C76.6152 53.9805 75.0684 55.1582 73.0732 55.1582C70.4541 55.1582 68.8633 53.3389 68.8633 50.4648C68.8633 47.626 70.4805 45.7012 73.0029 45.7012C75.4727 45.7012 76.9932 47.4941 76.9932 50.2627V50.8428H70.4365V50.9307C70.4365 52.6797 71.4648 53.8311 73.1084 53.8311C74.2686 53.8311 75.1211 53.2422 75.376 52.3809ZM84.5781 53.7432V47.1162H81.1504L80.8691 50.9658C80.79 52.0996 80.5527 53.0928 80.1221 53.6729V53.7432H84.5781ZM79.0322 57.417H77.6084V53.7432H78.373C79.041 53.3037 79.3662 52.1611 79.4541 50.9307L79.8057 45.8594H86.0986V53.7432H87.5488V57.417H86.125V55H79.0322V57.417ZM96.4873 48.6719H94.9756C94.7119 47.793 93.9648 47.0459 92.6729 47.0459C91.082 47.0459 90.0361 48.3906 90.0361 50.4297C90.0361 52.5215 91.0996 53.8135 92.6904 53.8135C93.9033 53.8135 94.7031 53.2158 94.9932 52.2051H96.5049C96.2061 53.9365 94.7383 55.1582 92.6816 55.1582C90.1416 55.1582 88.4805 53.3389 88.4805 50.4297C88.4805 47.582 90.1328 45.7012 92.6641 45.7012C94.8701 45.7012 96.2148 47.1162 96.4873 48.6719ZM104.608 45.8594V47.1162H101.655V55H100.144V47.1162H97.1904V45.8594H104.608ZM109.724 47.0986H107.535V49.6562H109.495C110.646 49.6562 111.2 49.2344 111.2 48.3555C111.2 47.5469 110.682 47.0986 109.724 47.0986ZM109.618 50.8867H107.535V53.7607H109.891C110.998 53.7607 111.596 53.2598 111.596 52.3369C111.596 51.3613 110.954 50.8867 109.618 50.8867ZM106.023 55V45.8594H109.935C111.648 45.8594 112.694 46.7471 112.694 48.1973C112.694 49.1289 112.035 49.9902 111.191 50.166V50.2363C112.343 50.3945 113.099 51.2295 113.099 52.3721C113.099 53.9893 111.903 55 109.961 55H106.023ZM117.871 53.8574C119.312 53.8574 120.42 52.8467 120.42 51.5283V50.7812L117.977 50.9307C116.746 51.0098 116.043 51.5547 116.043 52.416C116.043 53.2861 116.772 53.8574 117.871 53.8574ZM117.528 55.1582C115.709 55.1582 114.487 54.0596 114.487 52.416C114.487 50.8516 115.691 49.8672 117.801 49.7441L120.42 49.5947V48.8301C120.42 47.7139 119.682 47.0459 118.416 47.0459C117.238 47.0459 116.5 47.5996 116.307 48.4961H114.83C114.936 46.9141 116.289 45.7012 118.451 45.7012C120.596 45.7012 121.949 46.8613 121.949 48.6807V55H120.499V53.4268H120.464C119.919 54.4727 118.759 55.1582 117.528 55.1582ZM125.57 55H124.059V45.8594H125.913L129.165 52.9785H129.235L132.505 45.8594H134.289V55H132.769V48.5137H132.707L129.754 54.7363H128.585L125.632 48.5137H125.57V55ZM137.945 55H136.434V45.8594H137.945V52.6621H138.016L142.586 45.8594H144.098V55H142.586V48.1973H142.516L137.945 55ZM154.223 53.8135V47.0459C152.271 47.0898 151.032 48.3643 151.032 50.4297C151.032 52.4863 152.271 53.7607 154.223 53.8135ZM158.881 50.4297C158.881 48.373 157.642 47.0986 155.699 47.0459V53.8135C157.642 53.7695 158.881 52.4951 158.881 50.4297ZM154.223 55.1143C151.375 55.0615 149.494 53.251 149.494 50.4297C149.494 47.6084 151.375 45.7891 154.223 45.7451V42.8535H155.699V45.7451C158.529 45.7979 160.419 47.6084 160.419 50.4297C160.419 53.251 158.529 55.0703 155.699 55.1143V58.0498H154.223V55.1143ZM163.645 55H162.133V45.8594H163.645V52.6621H163.715L168.285 45.8594H169.797V55H168.285V48.1973H168.215L163.645 55ZM174.991 55.1582C172.987 55.1582 171.537 54.1738 171.379 52.627H172.926C173.102 53.4268 173.857 53.8926 174.991 53.8926C176.318 53.8926 177.057 53.2598 177.057 52.3721C177.057 51.3438 176.371 50.8779 174.991 50.8779H173.62V49.6299H174.991C176.151 49.6299 176.749 49.1904 176.749 48.2939C176.749 47.5293 176.204 46.9756 175.026 46.9756C173.945 46.9756 173.189 47.4414 173.066 48.1709H171.581C171.774 46.6592 173.093 45.7012 175.026 45.7012C177.109 45.7012 178.243 46.7031 178.243 48.1709C178.243 49.1025 177.646 49.9287 176.731 50.1396V50.21C177.936 50.4736 178.56 51.2471 178.56 52.3018C178.56 54.0068 177.136 55.1582 174.991 55.1582ZM181.82 55H180.309V45.8594H181.82V52.6621H181.891L186.461 45.8594H187.973V55H186.461V48.1973H186.391L181.82 55ZM197.087 55H195.575V51.0537H195.443C194.951 51.4756 194.222 51.7656 193.229 51.7656C191.04 51.7656 189.889 50.4385 189.889 48.4873V45.8594H191.4V48.4697C191.4 49.665 192.042 50.4297 193.272 50.4297C194.406 50.4297 195.153 50.0078 195.575 49.5332V45.8594H197.087V55ZM202.914 47.0283C201.481 47.0283 200.479 48.127 200.383 49.6475H205.349C205.313 48.1182 204.355 47.0283 202.914 47.0283ZM205.313 52.3809H206.816C206.553 53.9805 205.006 55.1582 203.011 55.1582C200.392 55.1582 198.801 53.3389 198.801 50.4648C198.801 47.626 200.418 45.7012 202.94 45.7012C205.41 45.7012 206.931 47.4941 206.931 50.2627V50.8428H200.374V50.9307C200.374 52.6797 201.402 53.8311 203.046 53.8311C204.206 53.8311 205.059 53.2422 205.313 52.3809ZM216.194 48.6719H214.683C214.419 47.793 213.672 47.0459 212.38 47.0459C210.789 47.0459 209.743 48.3906 209.743 50.4297C209.743 52.5215 210.807 53.8135 212.397 53.8135C213.61 53.8135 214.41 53.2158 214.7 52.2051H216.212C215.913 53.9365 214.445 55.1582 212.389 55.1582C209.849 55.1582 208.188 53.3389 208.188 50.4297C208.188 47.582 209.84 45.7012 212.371 45.7012C214.577 45.7012 215.922 47.1162 216.194 48.6719ZM220.905 50.1836L225.3 55H223.331L219.385 50.6055H219.314V55H217.803V45.8594H219.314V49.9023H219.385L223.287 45.8594H225.177L220.905 50.1836ZM230.195 55.1582C227.664 55.1582 225.959 53.3389 225.959 50.4297C225.959 47.5117 227.664 45.7012 230.195 45.7012C232.718 45.7012 234.423 47.5117 234.423 50.4297C234.423 53.3389 232.718 55.1582 230.195 55.1582ZM230.195 53.8135C231.812 53.8135 232.867 52.583 232.867 50.4297C232.867 48.2764 231.812 47.0459 230.195 47.0459C228.578 47.0459 227.515 48.2764 227.515 50.4297C227.515 52.583 228.578 53.8135 230.195 53.8135ZM237.631 55H236.119V45.8594H237.631V52.6621H237.701L242.271 45.8594H243.783V55H242.271V48.1973H242.201L237.631 55ZM237.288 41.9043H238.413C238.413 42.9238 239.072 43.7236 240.118 43.7236C241.164 43.7236 241.823 42.9238 241.823 41.9043H242.948C242.948 43.5215 241.797 44.6289 240.118 44.6289C238.439 44.6289 237.288 43.5215 237.288 41.9043ZM252.722 50.1836L257.116 55H255.147L251.201 50.6055H251.131V55H249.619V45.8594H251.131V49.9023H251.201L255.104 45.8594H256.993L252.722 50.1836ZM258.979 58.4189C258.795 58.4189 258.487 58.4014 258.32 58.3662V57.083C258.487 57.1182 258.725 57.127 258.918 57.127C259.771 57.127 260.245 56.7139 260.597 55.6504L260.808 55.0088L257.433 45.8594H259.067L261.599 53.4707H261.625L264.156 45.8594H265.765L262.17 55.6416C261.388 57.7773 260.632 58.4189 258.979 58.4189ZM269.043 50.9658C268.858 53.4883 268.252 55.0791 266.327 55.0791C266.063 55.0791 265.888 55.0264 265.782 54.9824V53.6025C265.861 53.6289 266.028 53.6729 266.248 53.6729C267.153 53.6729 267.496 52.6094 267.61 50.9307L267.962 45.8594H273.947V55H272.436V47.1162H269.324L269.043 50.9658ZM279.326 50.0342H277.621V53.7432H279.326C280.513 53.7432 281.277 53.0049 281.277 51.8887C281.277 50.7637 280.504 50.0342 279.326 50.0342ZM276.109 55V45.8594H277.621V48.7773H279.353C281.444 48.7773 282.789 49.9814 282.789 51.8887C282.789 53.7959 281.444 55 279.353 55H276.109ZM290.356 45.8594V47.1162H287.403V55H285.892V47.1162H282.938V45.8594H290.356ZM292.536 58.4189C292.352 58.4189 292.044 58.4014 291.877 58.3662V57.083C292.044 57.1182 292.281 57.127 292.475 57.127C293.327 57.127 293.802 56.7139 294.153 55.6504L294.364 55.0088L290.989 45.8594H292.624L295.155 53.4707H295.182L297.713 45.8594H299.321L295.727 55.6416C294.944 57.7773 294.188 58.4189 292.536 58.4189ZM305.131 45.7012C307.46 45.7012 309.042 47.5645 309.042 50.4297C309.042 53.2949 307.469 55.1582 305.166 55.1582C303.856 55.1582 302.802 54.5166 302.257 53.5146H302.222V58.0498H300.692V45.8594H302.143V47.4062H302.178C302.74 46.3779 303.804 45.7012 305.131 45.7012ZM304.832 53.8135C306.458 53.8135 307.478 52.5039 307.478 50.4297C307.478 48.3643 306.458 47.0459 304.832 47.0459C303.268 47.0459 302.213 48.3994 302.213 50.4297C302.213 52.4688 303.268 53.8135 304.832 53.8135ZM318.561 55V45.8594H320.072V55H318.561ZM313.955 50.0342H312.25V53.7432H313.955C315.142 53.7432 315.906 53.0049 315.906 51.8887C315.906 50.7637 315.133 50.0342 313.955 50.0342ZM310.738 55V45.8594H312.25V48.7773H313.981C316.073 48.7773 317.418 49.9814 317.418 51.8887C317.418 53.7959 316.073 55 313.981 55H310.738Z" fill="#1C414F"/>
<path d="M24.2627 44V32.9961H24.2275L20.8701 35.4131V33.7432L24.2451 31.3174H25.792V44H24.2627ZM29.8262 44.0879C29.2637 44.0879 28.8242 43.6484 28.8242 43.0859C28.8242 42.5234 29.2637 42.084 29.8262 42.084C30.3887 42.084 30.8281 42.5234 30.8281 43.0859C30.8281 43.6484 30.3887 44.0879 29.8262 44.0879Z" fill="#1C414F"/>
<path d="M1198 40.5C1198.4 40.5 1198.78 40.658 1199.06 40.9393C1199.34 41.2206 1199.5 41.6022 1199.5 42C1199.5 42.3978 1199.34 42.7794 1199.06 43.0607C1198.78 43.342 1198.4 43.5 1198 43.5C1197.6 43.5 1197.22 43.342 1196.94 43.0607C1196.66 42.7794 1196.5 42.3978 1196.5 42C1196.5 41.6022 1196.66 41.2206 1196.94 40.9393C1197.22 40.658 1197.6 40.5 1198 40.5ZM1198 34.5C1198.4 34.5 1198.78 34.658 1199.06 34.9393C1199.34 35.2206 1199.5 35.6022 1199.5 36C1199.5 36.3978 1199.34 36.7794 1199.06 37.0607C1198.78 37.342 1198.4 37.5 1198 37.5C1197.6 37.5 1197.22 37.342 1196.94 37.0607C1196.66 36.7794 1196.5 36.3978 1196.5 36C1196.5 35.6022 1196.66 35.2206 1196.94 34.9393C1197.22 34.658 1197.6 34.5 1198 34.5ZM1198 28.5C1198.4 28.5 1198.78 28.658 1199.06 28.9393C1199.34 29.2206 1199.5 29.6022 1199.5 30C1199.5 30.3978 1199.34 30.7794 1199.06 31.0607C1198.78 31.342 1198.4 31.5 1198 31.5C1197.6 31.5 1197.22 31.342 1196.94 31.0607C1196.66 30.7794 1196.5 30.3978 1196.5 30C1196.5 29.6022 1196.66 29.2206 1196.94 28.9393C1197.22 28.658 1197.6 28.5 1198 28.5Z" fill="#1C414F"/>
<g clip-path="url(#clip0_147_8630)">
<path d="M670.586 26.5C671.116 26.5001 671.625 26.7109 672 27.086L676.414 31.5C676.789 31.875 677 32.3836 677 32.914V44.5C677 45.0304 676.789 45.5391 676.414 45.9142C676.039 46.2893 675.53 46.5 675 46.5H663C662.47 46.5 661.961 46.2893 661.586 45.9142C661.211 45.5391 661 45.0304 661 44.5V28.5C661 27.9696 661.211 27.4609 661.586 27.0858C661.961 26.7107 662.47 26.5 663 26.5H670.586ZM669 28.5H663V44.5H675V34.5H670.5C670.127 34.5 669.768 34.3611 669.492 34.1104C669.216 33.8597 669.043 33.5152 669.007 33.144L669 33V28.5ZM671.064 37.149C671.154 36.911 671.332 36.7162 671.56 36.6045C671.789 36.4928 672.052 36.4724 672.295 36.5477C672.538 36.6229 672.743 36.788 672.869 37.0094C672.995 37.2307 673.031 37.4917 672.971 37.739L672.936 37.851L671.53 41.601C671.189 42.511 669.942 42.551 669.522 41.721L669.47 41.601L669 40.348L668.53 41.601C668.189 42.511 666.942 42.551 666.522 41.721L666.47 41.601L665.064 37.851C664.975 37.6123 664.981 37.3488 665.08 37.1141C665.179 36.8794 665.363 36.6913 665.596 36.5881C665.829 36.4849 666.092 36.4744 666.332 36.5587C666.573 36.6431 666.772 36.8159 666.889 37.042L666.936 37.149L667.5 38.652L667.97 37.399C668.311 36.489 669.558 36.449 669.978 37.279L670.03 37.399L670.5 38.652L671.064 37.149ZM671 28.914V32.5H674.586L671 28.914Z" fill="#1C414F"/>
</g>
<path d="M689.949 33.9736C689.949 31.7588 691.742 30.1064 694.133 30.1064C696.4 30.1064 698.185 31.6445 698.185 33.5869C698.185 35.002 697.543 36.0566 695.425 38.2451L692.217 41.5586V41.5938H698.396V43H690.028V41.9102L694.493 37.208C696.198 35.415 696.603 34.7383 696.603 33.6836C696.603 32.4619 695.486 31.4863 694.089 31.4863C692.604 31.4863 691.479 32.5586 691.479 33.9736V33.9824H689.949V33.9736Z" fill="#1C414F"/>
<g clip-path="url(#clip1_147_8630)">
<path fill-rule="evenodd" clip-rule="evenodd" d="M821.586 26.5C822.056 26.5001 822.51 26.6654 822.87 26.967L823 27.086L827.414 31.5C827.746 31.832 827.951 32.2703 827.992 32.738L828 32.914V44.5C828 45.0046 827.81 45.4906 827.467 45.8605C827.123 46.2305 826.653 46.4572 826.15 46.495L826 46.5H814C813.495 46.5002 813.009 46.3096 812.639 45.9665C812.269 45.6234 812.043 45.1532 812.005 44.65L812 44.5V28.5C812 27.9954 812.19 27.5094 812.533 27.1395C812.877 26.7695 813.347 26.5428 813.85 26.505L814 26.5H821.586ZM820 28.5H814V44.5H826V34.5H821.5C821.127 34.5 820.768 34.3611 820.492 34.1104C820.216 33.8597 820.043 33.5152 820.007 33.144L820 33V28.5ZM820.5 35.5C821.163 35.5 821.799 35.7634 822.268 36.2322C822.737 36.7011 823 37.337 823 38C823 38.663 822.737 39.2989 822.268 39.7678C821.799 40.2366 821.163 40.5 820.5 40.5H819V41.5C819 41.7652 818.895 42.0196 818.707 42.2071C818.52 42.3946 818.265 42.5 818 42.5C817.735 42.5 817.48 42.3946 817.293 42.2071C817.105 42.0196 817 41.7652 817 41.5V36.6C817 36.3083 817.116 36.0285 817.322 35.8222C817.528 35.6159 817.808 35.5 818.1 35.5H820.5ZM820.5 37.5H819V38.5H820.5C820.625 38.5002 820.745 38.4537 820.838 38.3695C820.93 38.2853 820.988 38.1696 820.999 38.0452C821.01 37.9207 820.974 37.7966 820.899 37.6972C820.823 37.5977 820.713 37.5303 820.59 37.508L820.5 37.5ZM822 28.914V32.5H825.586L822 28.914Z" fill="#1C414F"/>
</g>
<path d="M844.263 43V31.9961H844.228L840.87 34.4131V32.7432L844.245 30.3174H845.792V43H844.263Z" fill="#1C414F"/>
<g clip-path="url(#clip2_147_8630)">
<path fill-rule="evenodd" clip-rule="evenodd" d="M972.586 26.5C973.056 26.5001 973.51 26.6654 973.87 26.967L974 27.086L978.414 31.5C978.746 31.832 978.951 32.2703 978.992 32.738L979 32.914V44.5C979 45.0046 978.81 45.4906 978.467 45.8605C978.123 46.2305 977.653 46.4572 977.15 46.495L977 46.5H965C964.495 46.5002 964.009 46.3096 963.639 45.9665C963.269 45.6234 963.043 45.1532 963.005 44.65L963 44.5V28.5C963 27.9954 963.19 27.5094 963.533 27.1395C963.877 26.7695 964.347 26.5428 964.85 26.505L965 26.5H972.586ZM971 28.5H965V44.5H977V34.5H972.5C972.127 34.5 971.768 34.3611 971.492 34.1104C971.216 33.8597 971.043 33.5152 971.007 33.144L971 33V28.5ZM973 28.914V32.5H976.586L973 28.914Z" fill="#1C414F"/>
<circle cx="971" cy="39.5" r="3.4" stroke="#1C414F" stroke-width="1.2"/>
<path d="M969.9 40.7765V38.4237C969.9 38.275 970.057 38.1783 970.19 38.2448L972.543 39.4212C972.69 39.4949 972.69 39.7053 972.543 39.779L970.19 40.9554C970.057 41.0219 969.9 40.9252 969.9 40.7765Z" stroke="#1C414F" stroke-width="0.8"/>
</g>
<path d="M994.612 37.1465V35.8105H996.133C997.592 35.8105 998.611 34.8701 998.611 33.5869C998.611 32.3301 997.759 31.4775 996.15 31.4775C994.691 31.4775 993.725 32.3125 993.584 33.6396H992.063C992.239 31.4863 993.839 30.1064 996.221 30.1064C998.488 30.1064 1000.2 31.4688 1000.2 33.376C1000.2 34.9668 999.183 36.1094 997.601 36.3906V36.4258C999.517 36.54 1000.75 37.7266 1000.75 39.5107C1000.75 41.6904 998.761 43.2109 996.273 43.2109C993.619 43.2109 991.923 41.7432 991.809 39.6426H993.329C993.47 40.9434 994.551 41.8398 996.256 41.8398C997.935 41.8398 999.139 40.8906 999.139 39.5635C999.139 38.0693 998.014 37.1465 996.203 37.1465H994.612Z" fill="#1C414F"/>
<g clip-path="url(#clip3_147_8630)">
<path fill-rule="evenodd" clip-rule="evenodd" d="M1123.59 26.5C1124.06 26.5001 1124.51 26.6654 1124.87 26.967L1125 27.086L1129.41 31.5C1129.75 31.832 1129.95 32.2703 1129.99 32.738L1130 32.914V44.5C1130 45.0046 1129.81 45.4906 1129.47 45.8605C1129.12 46.2305 1128.65 46.4572 1128.15 46.495L1128 46.5H1116C1115.5 46.5002 1115.01 46.3096 1114.64 45.9665C1114.27 45.6234 1114.04 45.1532 1114.01 44.65L1114 44.5V28.5C1114 27.9954 1114.19 27.5094 1114.53 27.1395C1114.88 26.7695 1115.35 26.5428 1115.85 26.505L1116 26.5H1123.59ZM1122 28.5H1116V44.5H1128V34.5H1123.5C1123.13 34.5 1122.77 34.3611 1122.49 34.1104C1122.22 33.8597 1122.04 33.5152 1122.01 33.144L1122 33V28.5ZM1124 28.914V32.5H1127.59L1124 28.914Z" fill="#1C414F"/>
<path d="M1117.69 39.7162V41.5664H1118.02H1118.35V40.91V40.2536H1118.67C1119.29 40.2536 1119.73 40.0321 1119.92 39.626C1120.17 39.1296 1120.09 38.6291 1119.73 38.2681C1119.41 37.9522 1119.25 37.9071 1118.4 37.8824L1117.69 37.866V39.7162ZM1118.98 38.4116C1119.48 38.547 1119.62 39.2362 1119.23 39.626C1119.1 39.7572 1119.09 39.7613 1118.72 39.7613H1118.35V39.0639V38.3665H1118.59C1118.71 38.3665 1118.89 38.387 1118.98 38.4116Z" fill="#1C414F"/>
<path d="M1120.73 39.7242V41.5703L1121.62 41.558L1122.51 41.5457L1122.78 41.4185C1123.32 41.1642 1123.59 40.7375 1123.68 39.9909C1123.79 39.1171 1123.46 38.4238 1122.76 38.0833C1122.44 37.9274 1122.07 37.874 1121.27 37.874H1120.73V39.7242ZM1122.34 38.4894C1122.87 38.6904 1123.09 39.1458 1123.02 39.9129C1122.98 40.3478 1122.88 40.6062 1122.68 40.8114C1122.46 41.0206 1122.32 41.0698 1121.77 41.1026L1121.34 41.1273V39.7406V38.354L1121.73 38.3827C1121.96 38.3991 1122.22 38.4443 1122.34 38.4894Z" fill="#1C414F"/>
<path d="M1124.54 39.7203V41.5664H1124.85H1125.16V40.7459V39.9254H1125.94H1126.72V39.6998V39.4742H1125.94H1125.16V38.9203V38.3665H1126H1126.84V38.1204V37.8742H1125.69H1124.54V39.7203Z" fill="#1C414F"/>
</g>
<path d="M1142.95 33.9736C1142.95 31.7588 1144.74 30.1064 1147.13 30.1064C1149.4 30.1064 1151.18 31.6445 1151.18 33.5869C1151.18 35.002 1150.54 36.0566 1148.42 38.2451L1145.22 41.5586V41.5938H1151.4V43H1143.03V41.9102L1147.49 37.208C1149.2 35.415 1149.6 34.7383 1149.6 33.6836C1149.6 32.4619 1148.49 31.4863 1147.09 31.4863C1145.6 31.4863 1144.48 32.5586 1144.48 33.9736V33.9824H1142.95V33.9736Z" fill="#1C414F"/>
<defs>
<clipPath id="clip0_147_8630">
<rect width="24" height="24" fill="white" transform="translate(657 24.5)"/>
</clipPath>
<clipPath id="clip1_147_8630">
<rect width="24" height="24" fill="white" transform="translate(808 24.5)"/>
</clipPath>
<clipPath id="clip2_147_8630">
<rect width="24" height="24" fill="white" transform="translate(959 24.5)"/>
</clipPath>
<clipPath id="clip3_147_8630">
<rect width="24" height="24" fill="white" transform="translate(1110 24.5)"/>
</clipPath>
</defs>
</svg>
