<svg width="36" height="36" viewBox="0 0 36 36" fill="none" xmlns="http://www.w3.org/2000/svg">
<path d="M29.9532 29.8126V33.1173C29.9532 33.2657 29.894 33.4081 29.7885 33.5131C29.683 33.618 29.5399 33.677 29.3907 33.677H6.60949C6.46031 33.677 6.31723 33.618 6.21174 33.5131C6.10626 33.4081 6.04699 33.2657 6.04699 33.1173V29.7423C6.04699 29.6486 6.00012 29.6017 5.90637 29.6017H4.4298C4.28137 29.6017 4.13901 29.5424 4.03405 29.4369C3.92908 29.3314 3.87012 29.1884 3.87012 29.0392V18.2814C3.87012 18.1135 3.93649 17.9526 4.05464 17.8339C4.17279 17.7152 4.33303 17.6486 4.50012 17.6486H5.90637C6.00012 17.6486 6.04699 17.6017 6.04699 17.5079V2.88574C6.04699 2.73656 6.10596 2.59348 6.21092 2.48799C6.31588 2.38251 6.45824 2.32324 6.60668 2.32324H29.3936C29.542 2.32324 29.6844 2.38251 29.7893 2.48799C29.8943 2.59348 29.9532 2.73656 29.9532 2.88574V17.5079C29.9532 17.6017 30.0001 17.6486 30.0939 17.6486H31.5704C31.7189 17.6486 31.8612 17.7078 31.9662 17.8133C32.0711 17.9188 32.1301 18.0619 32.1301 18.2111V29.0026C32.1301 29.161 32.0677 29.313 31.9565 29.4252C31.8453 29.5375 31.6943 29.6009 31.5367 29.6017L30.1642 29.6045C30.0236 29.6045 29.9532 29.6739 29.9532 29.8126ZM28.8282 3.52418C28.8282 3.50329 28.8199 3.48326 28.8052 3.46849C28.7904 3.45373 28.7704 3.44543 28.7495 3.44543H7.25074C7.22986 3.44543 7.20983 3.45373 7.19506 3.46849C7.18029 3.48326 7.17199 3.50329 7.17199 3.52418V17.5698C7.17199 17.5907 7.18029 17.6107 7.19506 17.6255C7.20983 17.6403 7.22986 17.6486 7.25074 17.6486H28.7495C28.7704 17.6486 28.7904 17.6403 28.8052 17.6255C28.8199 17.6107 28.8282 17.5907 28.8282 17.5698V3.52418ZM21.0489 23.102C21.0489 22.7382 20.9772 22.3779 20.838 22.0418C20.6988 21.7057 20.4947 21.4003 20.2375 21.1431C19.9802 20.8858 19.6748 20.6818 19.3387 20.5426C19.0026 20.4033 18.6424 20.3317 18.2786 20.3317H17.7498C17.0151 20.3317 16.3104 20.6235 15.7909 21.1431C15.2714 21.6626 14.9795 22.3673 14.9795 23.102V24.0132C14.9795 24.377 15.0511 24.7373 15.1904 25.0734C15.3296 25.4095 15.5336 25.7149 15.7909 25.9721C16.0481 26.2294 16.3535 26.4335 16.6897 26.5727C17.0258 26.7119 17.386 26.7836 17.7498 26.7836H18.2786C18.6424 26.7836 19.0026 26.7119 19.3387 26.5727C19.6748 26.4335 19.9802 26.2294 20.2375 25.9721C20.4947 25.7149 20.6988 25.4095 20.838 25.0734C20.9772 24.7373 21.0489 24.377 21.0489 24.0132V23.102ZM25.6389 24.2298C25.3098 25.9904 23.3157 25.8695 23.1189 24.1286C22.9923 22.9979 23.1357 21.4651 24.6798 21.6592C25.1382 21.7154 25.4336 22.0726 25.5686 22.4945C25.6079 22.6145 25.6886 22.6595 25.8104 22.6295L26.8651 22.3623C27.0207 22.3229 27.0751 22.2264 27.0282 22.0726C26.7339 21.1014 26.087 20.5286 25.0876 20.3542C20.9982 19.637 20.312 25.8161 23.552 26.6682C25.3464 27.1407 26.5342 26.4901 27.1154 24.7164C27.1323 24.6695 27.1164 24.6386 27.0676 24.6236L25.6951 24.1961C25.6632 24.1848 25.6445 24.1961 25.6389 24.2298ZM9.07324 20.5876L9.08449 26.5276C9.08449 26.5813 9.10583 26.6328 9.1438 26.6708C9.18178 26.7088 9.23329 26.7301 9.28699 26.7301L11.7901 26.7245C12.1366 26.7238 12.4795 26.6523 12.7993 26.5141C13.1191 26.3759 13.4095 26.1737 13.654 25.919C13.8984 25.6644 14.0921 25.3623 14.224 25.03C14.3559 24.6977 14.4234 24.3417 14.4226 23.9823V23.1104C14.4211 22.3847 14.1417 21.6892 13.6459 21.1771C13.1501 20.6649 12.4785 20.378 11.7789 20.3795L9.27574 20.3851C9.22204 20.3851 9.17053 20.4064 9.13255 20.4444C9.09458 20.4824 9.07324 20.5339 9.07324 20.5876ZM28.8282 29.6776C28.8282 29.6575 28.8202 29.6382 28.806 29.6239C28.7918 29.6097 28.7724 29.6017 28.7523 29.6017H7.24793C7.22779 29.6017 7.20847 29.6097 7.19423 29.6239C7.17999 29.6382 7.17199 29.6575 7.17199 29.6776V32.4789C7.17199 32.499 7.17999 32.5183 7.19423 32.5326C7.20847 32.5468 7.22779 32.5548 7.24793 32.5548H28.7523C28.7724 32.5548 28.7918 32.5468 28.806 32.5326C28.8202 32.5183 28.8282 32.499 28.8282 32.4789V29.6776Z" fill="#04A1DB"/>
<path d="M26.291 6.39844H9.70848C9.40403 6.39844 9.15723 6.64524 9.15723 6.94969V6.96656C9.15723 7.27101 9.40403 7.51781 9.70848 7.51781H26.291C26.5954 7.51781 26.8422 7.27101 26.8422 6.96656V6.94969C26.8422 6.64524 26.5954 6.39844 26.291 6.39844Z" fill="#04A1DB"/>
<path d="M26.291 10.3359H9.70848C9.40403 10.3359 9.15723 10.5827 9.15723 10.8872V10.9041C9.15723 11.2085 9.40403 11.4553 9.70848 11.4553H26.291C26.5954 11.4553 26.8422 11.2085 26.8422 10.9041V10.8872C26.8422 10.5827 26.5954 10.3359 26.291 10.3359Z" fill="#04A1DB"/>
<path d="M26.2937 14.2734H9.70555C9.4011 14.2734 9.1543 14.5202 9.1543 14.8247V14.8416C9.1543 15.146 9.4011 15.3928 9.70555 15.3928H26.2937C26.5981 15.3928 26.8449 15.146 26.8449 14.8416V14.8247C26.8449 14.5202 26.5981 14.2734 26.2937 14.2734Z" fill="#04A1DB"/>
<path d="M10.6204 21.7885C10.6204 21.7661 10.6293 21.7446 10.6451 21.7288C10.6609 21.713 10.6824 21.7041 10.7048 21.7041L11.6132 21.7097C11.7798 21.7104 11.9446 21.7448 12.0982 21.8107C12.2519 21.8767 12.3913 21.973 12.5085 22.0942C12.6258 22.2154 12.7186 22.3591 12.7817 22.517C12.8447 22.6749 12.8768 22.8441 12.876 23.0147L12.8704 24.1397C12.8689 24.4843 12.7338 24.8142 12.4948 25.0568C12.2559 25.2994 11.9327 25.4349 11.5963 25.4335L10.6879 25.4279C10.6655 25.4279 10.6441 25.419 10.6282 25.4031C10.6124 25.3873 10.6035 25.3659 10.6035 25.3435L10.6204 21.7885Z" fill="#04A1DB"/>
<path d="M16.456 23.5462C16.4522 24.6335 17.1467 25.5174 18.0072 25.5204C18.8678 25.5234 19.5684 24.6444 19.5722 23.5571C19.576 22.4698 18.8815 21.5859 18.021 21.5829C17.1605 21.5799 16.4598 22.4589 16.456 23.5462Z" fill="#04A1DB"/>
</svg>
