<svg width="24" height="24" viewBox="0 0 24 24" fill="none" xmlns="http://www.w3.org/2000/svg">
<g clip-path="url(#clip0_184_4413)">
<path fill-rule="evenodd" clip-rule="evenodd" d="M9.986 4.25501C9.736 5.09001 9.523 6.04501 9.36 7.09501C11.1177 6.96752 12.8823 6.96752 14.64 7.09501C14.4963 6.13518 14.2872 5.1863 14.014 4.25501C13.3562 4.085 12.6794 3.99931 12 4.00001C11.303 4.00001 10.629 4.08901 9.986 4.25501ZM16.338 5.27701C16.476 5.91901 16.595 6.59801 16.692 7.30701C17.402 7.40501 18.082 7.52401 18.723 7.66201C18.1054 6.70747 17.2925 5.89462 16.338 5.27701ZM19.745 9.98601C18.91 9.73601 17.955 9.52301 16.905 9.36001C17.0325 11.1177 17.0325 12.8823 16.905 14.64C17.8648 14.4963 18.8137 14.2872 19.745 14.014C19.915 13.3562 20.0007 12.6794 20 12C20 11.303 19.911 10.629 19.745 9.98601ZM18.723 16.338C18.0511 16.4817 17.3739 16.5998 16.693 16.692C16.6005 17.3733 16.4821 18.0508 16.338 18.723C17.2925 18.1054 18.1054 17.2925 18.723 16.338ZM14.014 19.745C14.264 18.91 14.477 17.955 14.64 16.905C12.8823 17.0325 11.1177 17.0325 9.36 16.905C9.523 17.955 9.735 18.91 9.986 19.745C10.6438 19.915 11.3206 20.0007 12 20C12.697 20 13.371 19.911 14.014 19.745ZM7.662 18.723C7.51826 18.0511 7.40017 17.3739 7.308 16.693C6.62674 16.6005 5.94925 16.4821 5.277 16.338C5.89462 17.2925 6.70747 18.1054 7.662 18.723ZM4.255 14.014C5.09 14.264 6.045 14.477 7.095 14.64C6.9675 12.8823 6.9675 11.1177 7.095 9.36001C6.13518 9.50373 5.1863 9.71289 4.255 9.98601C4.08498 10.6438 3.9993 11.3206 4 12C4 12.697 4.089 13.371 4.255 14.014ZM5.277 7.66201C5.94893 7.51826 6.62609 7.40018 7.307 7.30801C7.405 6.59801 7.524 5.91801 7.662 5.27701C6.70747 5.89462 5.89462 6.70747 5.277 7.66201ZM9.119 9.12001C9.03889 10.0779 8.99919 11.0388 9 12C9 12.998 9.042 13.963 9.12 14.88C10.037 14.958 11.002 15 12 15C12.998 15 13.963 14.958 14.88 14.88C14.958 13.963 15 12.998 15 12C15 11.002 14.958 10.037 14.88 9.12001C13.9221 9.03956 12.9613 8.99952 12 9.00001C11.002 9.00001 10.036 9.04201 9.119 9.12001ZM8.884 2.49701C9.88979 2.16735 10.9416 1.99959 12 2.00001C14.1078 1.99771 16.1623 2.66229 17.8694 3.89862C19.5765 5.13495 20.8488 6.87965 21.504 8.88301C21.826 9.86501 22 10.913 22 12C22.0011 13.0587 21.8341 14.1108 21.505 15.117C21.0144 16.6073 20.1808 17.9616 19.0713 19.071C17.9618 20.1803 16.6074 21.0137 15.117 21.504C14.1108 21.8334 13.0587 22.0008 12 22C10.9413 22.0011 9.88923 21.8341 8.883 21.505C7.39271 21.0144 6.03839 20.1808 4.92906 19.0713C3.81972 17.9618 2.98634 16.6074 2.496 15.117C2.16658 14.1108 1.99916 13.0587 2 12C2 10.913 2.174 9.86501 2.496 8.88301C2.98648 7.39282 3.81991 6.03857 4.92924 4.92925C6.03857 3.81992 7.39282 2.98648 8.883 2.49601" fill="#1C414F"/>
</g>
<defs>
<clipPath id="clip0_184_4413">
<rect width="24" height="24" fill="white"/>
</clipPath>
</defs>
</svg>
