<svg width="36" height="36" viewBox="0 0 36 36" fill="none" xmlns="http://www.w3.org/2000/svg">
<path d="M26.4178 10.0519H9.83531C9.52931 10.0519 9.28125 10.2999 9.28125 10.6059V10.6228C9.28125 10.9288 9.52931 11.1769 9.83531 11.1769H26.4178C26.7238 11.1769 26.9719 10.9288 26.9719 10.6228V10.6059C26.9719 10.2999 26.7238 10.0519 26.4178 10.0519Z" fill="#F28607"/>
<path d="M26.4178 13.9922H9.83531C9.52931 13.9922 9.28125 14.2402 9.28125 14.5463V14.5575C9.28125 14.8635 9.52931 15.1116 9.83531 15.1116H26.4178C26.7238 15.1116 26.9719 14.8635 26.9719 14.5575V14.5463C26.9719 14.2402 26.7238 13.9922 26.4178 13.9922Z" fill="#F28607"/>
<path d="M24.3523 23.177C23.7546 23.177 23.3251 23.6299 23.2784 24.2556H25.4029C25.3748 23.6159 24.9593 23.177 24.3523 23.177Z" fill="#F28607"/>
<path fill-rule="evenodd" clip-rule="evenodd" d="M5.90625 17.7188H4.5C4.18934 17.7188 3.9375 17.9706 3.9375 18.2812V28.9688C3.9375 29.2794 4.18934 29.5312 4.5 29.5312H5.90625V32.9062C5.90625 33.3722 6.28401 33.75 6.75 33.75H29.25C29.716 33.75 30.0938 33.3722 30.0938 32.9062V29.5312H31.5C31.8107 29.5312 32.0625 29.2794 32.0625 28.9688V18.2812C32.0625 17.9706 31.8107 17.7188 31.5 17.7188H30.0938V3.09375C30.0938 2.62776 29.716 2.25 29.25 2.25H6.75C6.28401 2.25 5.90625 2.62776 5.90625 3.09375V17.7188ZM7.03125 17.7188V3.375H28.9688V17.7188H7.03125ZM28.9688 29.5312V32.625H7.03125V29.5312H28.9688ZM14.7151 27.2812V22.2759H16.0785V27.2812H14.7151ZM15.3968 21.7249C14.9859 21.7249 14.6684 21.4121 14.6684 21.0199C14.6684 20.623 14.9859 20.3148 15.3968 20.3148C15.8077 20.3148 16.1252 20.623 16.1252 21.0199C16.1252 21.4121 15.8077 21.7249 15.3968 21.7249ZM10.9704 27.2812H9.5603V20.5436H13.9727V21.7062H10.9704V23.5132H13.7112V24.6292H10.9704V27.2812ZM21.4621 27.2812V26.114H18.5158V20.5436H17.1057V27.2812H21.4621ZM25.4215 25.7498H26.6729C26.5235 26.7303 25.627 27.3886 24.3896 27.3886C22.8488 27.3886 21.9243 26.4034 21.9243 24.8019C21.9243 23.205 22.8582 22.1685 24.3383 22.1685C25.7951 22.1685 26.7149 23.1537 26.7149 24.6758V25.0914H23.2644V25.1754C23.2644 25.8898 23.7173 26.3801 24.413 26.3801C24.9126 26.3801 25.2955 26.1326 25.4215 25.7498Z" fill="#F28607"/>
<path d="M26.4178 6.1875H9.83531C9.52931 6.1875 9.28125 6.43556 9.28125 6.74156V6.75844C9.28125 7.06444 9.52931 7.3125 9.83531 7.3125H26.4178C26.7238 7.3125 26.9719 7.06444 26.9719 6.75844V6.74156C26.9719 6.43556 26.7238 6.1875 26.4178 6.1875Z" fill="#F28607"/>
</svg>
