<svg width="25" height="24" viewBox="0 0 25 24" fill="none" xmlns="http://www.w3.org/2000/svg">
<path fill-rule="evenodd" clip-rule="evenodd" d="M6.5 7C6.5 5.67392 7.02678 4.40215 7.96447 3.46447C8.90215 2.52678 10.1739 2 11.5 2C12.8261 2 14.0979 2.52678 15.0355 3.46447C15.9732 4.40215 16.5 5.67392 16.5 7C16.5 8.32608 15.9732 9.59785 15.0355 10.5355C14.0979 11.4732 12.8261 12 11.5 12C10.1739 12 8.90215 11.4732 7.96447 10.5355C7.02678 9.59785 6.5 8.32608 6.5 7ZM11.5 4C11.106 4 10.7159 4.0776 10.3519 4.22836C9.98797 4.37913 9.65726 4.6001 9.37868 4.87868C9.1001 5.15726 8.87913 5.48797 8.72836 5.85195C8.5776 6.21593 8.5 6.60603 8.5 7C8.5 7.39397 8.5776 7.78407 8.72836 8.14805C8.87913 8.51203 9.1001 8.84274 9.37868 9.12132C9.65726 9.3999 9.98797 9.62087 10.3519 9.77164C10.7159 9.9224 11.106 10 11.5 10C12.2956 10 13.0587 9.68393 13.6213 9.12132C14.1839 8.55871 14.5 7.79565 14.5 7C14.5 6.20435 14.1839 5.44129 13.6213 4.87868C13.0587 4.31607 12.2956 4 11.5 4ZM11.5 13C13.896 13 16.075 13.694 17.678 14.672C18.478 15.16 19.162 15.736 19.656 16.362C20.142 16.977 20.5 17.713 20.5 18.5C20.5 19.345 20.089 20.011 19.497 20.486C18.937 20.936 18.198 21.234 17.413 21.442C15.835 21.859 13.729 22 11.5 22C9.271 22 7.165 21.86 5.587 21.442C4.802 21.234 4.063 20.936 3.503 20.486C2.91 20.01 2.5 19.345 2.5 18.5C2.5 17.713 2.858 16.977 3.344 16.361C3.838 15.736 4.521 15.161 5.322 14.671C6.925 13.695 9.105 13 11.5 13ZM11.5 15C9.477 15 7.657 15.59 6.364 16.379C5.717 16.773 5.229 17.201 4.914 17.601C4.59 18.011 4.5 18.321 4.5 18.5C4.5 18.622 4.537 18.751 4.755 18.926C5.004 19.126 5.437 19.333 6.099 19.508C7.417 19.858 9.311 20 11.5 20C13.69 20 15.583 19.857 16.9 19.508C17.563 19.333 17.996 19.126 18.245 18.926C18.463 18.751 18.5 18.622 18.5 18.5C18.5 18.32 18.41 18.011 18.087 17.601C17.771 17.201 17.283 16.773 16.636 16.379C15.343 15.589 13.523 15 11.5 15ZM21.5 13C21.7549 13.0003 22 13.0979 22.1854 13.2728C22.3707 13.4478 22.4822 13.687 22.4972 13.9414C22.5121 14.1958 22.4293 14.4464 22.2657 14.6418C22.1021 14.8373 21.8701 14.9629 21.617 14.993L21.5 15H20.5C20.2451 14.9997 20 14.9021 19.8146 14.7272C19.6293 14.5522 19.5178 14.313 19.5028 14.0586C19.4879 13.8042 19.5707 13.5536 19.7343 13.3582C19.8979 13.1627 20.1299 13.0371 20.383 13.007L20.5 13H21.5ZM18.5 11C18.5 10.7348 18.6054 10.4804 18.7929 10.2929C18.9804 10.1054 19.2348 10 19.5 10H21.5C21.7652 10 22.0196 10.1054 22.2071 10.2929C22.3946 10.4804 22.5 10.7348 22.5 11C22.5 11.2652 22.3946 11.5196 22.2071 11.7071C22.0196 11.8946 21.7652 12 21.5 12H19.5C19.2348 12 18.9804 11.8946 18.7929 11.7071C18.6054 11.5196 18.5 11.2652 18.5 11ZM18.5 7C18.2348 7 17.9804 7.10536 17.7929 7.29289C17.6054 7.48043 17.5 7.73478 17.5 8C17.5 8.26522 17.6054 8.51957 17.7929 8.70711C17.9804 8.89464 18.2348 9 18.5 9H21.5C21.7652 9 22.0196 8.89464 22.2071 8.70711C22.3946 8.51957 22.5 8.26522 22.5 8C22.5 7.73478 22.3946 7.48043 22.2071 7.29289C22.0196 7.10536 21.7652 7 21.5 7H18.5Z" fill="white"/>
</svg>
