<svg width="16" height="17" viewBox="0 0 16 17" fill="none" xmlns="http://www.w3.org/2000/svg">
<g clip-path="url(#clip0_198_641)">
<path d="M1.42395 8.02879C1.29897 8.15381 1.22876 8.32334 1.22876 8.50012C1.22876 8.6769 1.29897 8.84644 1.42395 8.97145L5.19528 12.7428C5.32102 12.8642 5.48942 12.9314 5.66422 12.9299C5.83902 12.9284 6.00622 12.8583 6.12983 12.7347C6.25344 12.6111 6.32355 12.4439 6.32507 12.2691C6.32659 12.0943 6.25939 11.9259 6.13795 11.8001L3.50462 9.16679H12.3333C12.5101 9.16679 12.6797 9.09655 12.8047 8.97152C12.9297 8.8465 13 8.67693 13 8.50012C13 8.32331 12.9297 8.15374 12.8047 8.02872C12.6797 7.90369 12.5101 7.83345 12.3333 7.83345H3.50462L6.13795 5.20012C6.25939 5.07439 6.32659 4.90598 6.32507 4.73119C6.32355 4.55639 6.25344 4.38918 6.12983 4.26557C6.00622 4.14197 5.83902 4.07186 5.66422 4.07034C5.48942 4.06882 5.32102 4.13601 5.19528 4.25745L1.42395 8.02879Z" fill="#2BB231"/>
</g>
<defs>
<clipPath id="clip0_198_641">
<rect width="16" height="16" fill="white" transform="translate(0 0.5)"/>
</clipPath>
</defs>
</svg>
