<svg width="16" height="16" viewBox="0 0 16 16" fill="none" xmlns="http://www.w3.org/2000/svg">
<path d="M12 2.98644C10.9391 1.92558 9.50028 1.32959 7.99999 1.32959C6.4997 1.32959 5.06086 1.92558 3.99999 2.98644C2.93913 4.04731 2.34314 5.48615 2.34314 6.98644C2.34314 8.48674 2.93913 9.92558 3.99999 10.9864L7.51333 14.5064C7.5753 14.5689 7.64904 14.6185 7.73028 14.6524C7.81152 14.6862 7.89865 14.7036 7.98666 14.7036C8.07467 14.7036 8.1618 14.6862 8.24304 14.6524C8.32428 14.6185 8.39802 14.5689 8.45999 14.5064L12 10.9531C13.0564 9.89666 13.6499 8.46381 13.6499 6.96978C13.6499 5.47574 13.0564 4.0429 12 2.98644ZM11.0467 9.99978L7.99999 13.0598L4.95333 9.99978C4.35142 9.39732 3.94164 8.62994 3.77579 7.79464C3.60994 6.95933 3.69545 6.09361 4.02153 5.3069C4.34761 4.52019 4.89961 3.84781 5.60775 3.37476C6.31589 2.90171 7.14838 2.64923 7.99999 2.64923C8.8516 2.64923 9.6841 2.90171 10.3922 3.37476C11.1004 3.84781 11.6524 4.52019 11.9785 5.3069C12.3045 6.09361 12.3901 6.95933 12.2242 7.79464C12.0583 8.62994 11.6486 9.39732 11.0467 9.99978ZM5.99999 4.93978C5.4618 5.47963 5.15959 6.21082 5.15959 6.97311C5.15959 7.7354 5.4618 8.4666 5.99999 9.00644C6.39983 9.40697 6.90905 9.6805 7.46376 9.79271C8.01847 9.90493 8.59396 9.85083 9.11804 9.63721C9.64212 9.42359 10.0914 9.05996 10.4096 8.59194C10.7278 8.12392 10.9007 7.57236 10.9067 7.00644C10.9097 6.62858 10.8369 6.25395 10.6926 5.9047C10.5483 5.55546 10.3355 5.23868 10.0667 4.97311C9.80244 4.70283 9.48738 4.48747 9.13961 4.33942C8.79184 4.19137 8.41822 4.11356 8.04026 4.11046C7.6623 4.10737 7.28746 4.17904 6.93731 4.32137C6.58716 4.4637 6.26861 4.67386 5.99999 4.93978ZM9.12666 8.05978C8.87402 8.31627 8.54013 8.47705 8.18208 8.51461C7.82402 8.55218 7.46404 8.4642 7.16366 8.26573C6.86329 8.06725 6.64119 7.77061 6.53533 7.4265C6.42947 7.08239 6.44643 6.7122 6.5833 6.37921C6.72017 6.04623 6.96846 5.77112 7.28572 5.60093C7.60297 5.43075 7.96949 5.37605 8.32262 5.44619C8.67574 5.51633 8.99353 5.70695 9.22167 5.98547C9.4498 6.26398 9.5741 6.61309 9.57333 6.97311C9.56363 7.38462 9.39099 7.77546 9.09333 8.05978H9.12666Z" fill="#1C414F"/>
</svg>
