<svg width="36" height="36" viewBox="0 0 36 36" fill="none" xmlns="http://www.w3.org/2000/svg">
<path d="M29.9532 29.8126V33.1145C29.9532 33.2637 29.894 33.4067 29.7885 33.5122C29.683 33.6177 29.5399 33.677 29.3907 33.677H6.60949C6.46031 33.677 6.31723 33.618 6.21174 33.5131C6.10626 33.4081 6.04699 33.2657 6.04699 33.1173V29.7423C6.04699 29.6486 6.00012 29.6017 5.90637 29.6017H4.46637C4.30823 29.6017 4.15657 29.5389 4.04475 29.427C3.93294 29.3152 3.87012 29.1636 3.87012 29.0054V18.2814C3.87012 17.8595 4.08012 17.6486 4.50012 17.6486H5.90637C6.00012 17.6486 6.04699 17.6017 6.04699 17.5079V2.88574C6.04699 2.73656 6.10596 2.59348 6.21092 2.48799C6.31588 2.38251 6.45824 2.32324 6.60668 2.32324H29.3936C29.542 2.32324 29.6844 2.38251 29.7893 2.48799C29.8943 2.59348 29.9532 2.73656 29.9532 2.88574V17.5079C29.9532 17.6017 30.0001 17.6486 30.0939 17.6486H31.5704C31.7189 17.6486 31.8612 17.7078 31.9662 17.8133C32.0711 17.9188 32.1301 18.0619 32.1301 18.2111V29.0392C32.1301 29.1879 32.0712 29.3305 31.9664 29.4359C31.8615 29.5413 31.7191 29.6009 31.5704 29.6017L30.1642 29.6045C30.0236 29.6045 29.9532 29.6739 29.9532 29.8126ZM28.8282 3.52137C28.8282 3.50123 28.8202 3.48191 28.806 3.46767C28.7918 3.45343 28.7724 3.44543 28.7523 3.44543H7.24793C7.22779 3.44543 7.20847 3.45343 7.19423 3.46767C7.17999 3.48191 7.17199 3.50123 7.17199 3.52137V17.5726C7.17199 17.5826 7.17396 17.5925 7.17777 17.6017C7.18159 17.6109 7.18718 17.6193 7.19423 17.6263C7.20128 17.6334 7.20966 17.639 7.21887 17.6428C7.22808 17.6466 7.23796 17.6486 7.24793 17.6486H28.7523C28.7724 17.6486 28.7918 17.6406 28.806 17.6263C28.8202 17.6121 28.8282 17.5928 28.8282 17.5726V3.52137ZM14.4817 23.4029L14.4873 26.5782C14.4873 26.672 14.5332 26.7189 14.6251 26.7189H15.7529C15.8467 26.7189 15.8936 26.6711 15.8936 26.5754V20.6045C15.8936 20.4639 15.8232 20.3936 15.6826 20.3936H14.012C13.8807 20.3936 13.7982 20.4564 13.7645 20.582L12.9095 23.8192C12.8626 23.9954 12.8167 23.9954 12.7717 23.8192L11.9139 20.5792C11.882 20.4554 11.8014 20.3936 11.672 20.3936H9.98449C9.84574 20.3936 9.77637 20.4629 9.77637 20.6017V26.5782C9.77637 26.672 9.8223 26.7189 9.91418 26.7189H11.0448C11.1423 26.7189 11.1911 26.6701 11.1911 26.5726L11.1939 23.1667C11.1935 23.1615 11.1952 23.1563 11.1986 23.1523C11.2021 23.1484 11.2069 23.146 11.2121 23.1456C11.2174 23.1452 11.2225 23.1469 11.2265 23.1504C11.2304 23.1538 11.2329 23.1586 11.2332 23.1639L12.1023 26.5698C12.1286 26.6692 12.1942 26.7189 12.2992 26.7189H13.3792C13.4879 26.7189 13.5554 26.6664 13.5817 26.5614L14.3776 23.3917C14.447 23.1217 14.4817 23.1254 14.4817 23.4029ZM18.5232 24.4323C18.8795 24.4304 19.2442 24.4286 19.6173 24.4267C22.3989 24.407 22.5114 20.4695 19.7326 20.4076C18.812 20.387 17.8839 20.3842 16.9482 20.3992C16.8601 20.4011 16.8161 20.447 16.8161 20.537V26.5501C16.8161 26.6626 16.8732 26.7189 16.9876 26.7189H18.1689C18.2832 26.7189 18.3404 26.6626 18.3404 26.5501L18.3432 24.6095C18.3432 24.4914 18.4032 24.4323 18.5232 24.4323ZM25.6136 23.1864C26.9101 22.0979 25.8414 20.4667 24.3986 20.3907C23.2323 20.3289 22.5179 20.867 22.2554 22.0051C22.2236 22.142 22.2779 22.2226 22.4186 22.247L23.3607 22.4073C23.4882 22.4298 23.5707 22.3801 23.6082 22.2582C23.732 21.8645 23.8754 21.5017 24.3957 21.6479C24.8317 21.7689 24.7923 22.3229 24.5307 22.5845C24.3873 22.7279 24.1595 22.7307 23.9682 22.7617C23.8445 22.7823 23.7742 22.8554 23.7573 22.9811L23.6476 23.8304C23.6307 23.9542 23.6842 24.0057 23.8079 23.9851C24.4014 23.8839 24.8879 23.8782 24.9639 24.6236C25.0651 25.6248 23.8107 25.9398 23.6223 25.0454C23.6054 24.9648 23.5811 24.887 23.5492 24.812C23.5098 24.7201 23.4404 24.6807 23.3411 24.6939L22.2892 24.8317C22.1729 24.8486 22.1261 24.9142 22.1486 25.0286C22.6576 27.5711 26.3082 27.3179 26.4489 24.8682C26.4864 24.1989 26.2117 23.6898 25.6248 23.3411C25.6119 23.3331 25.6011 23.3222 25.5932 23.3093C25.5854 23.2963 25.5807 23.2817 25.5796 23.2666C25.5785 23.2515 25.581 23.2363 25.5869 23.2224C25.5928 23.2084 25.6019 23.1961 25.6136 23.1864ZM28.8282 29.6776C28.8282 29.6575 28.8202 29.6382 28.806 29.6239C28.7918 29.6097 28.7724 29.6017 28.7523 29.6017H7.24793C7.22779 29.6017 7.20847 29.6097 7.19423 29.6239C7.17999 29.6382 7.17199 29.6575 7.17199 29.6776V32.4789C7.17199 32.499 7.17999 32.5183 7.19423 32.5326C7.20847 32.5468 7.22779 32.5548 7.24793 32.5548H28.7523C28.7724 32.5548 28.7918 32.5468 28.806 32.5326C28.8202 32.5183 28.8282 32.499 28.8282 32.4789V29.6776Z" fill="#CD27AC"/>
<path d="M26.291 6.39844H9.70848C9.40403 6.39844 9.15723 6.64524 9.15723 6.94969V6.96656C9.15723 7.27101 9.40403 7.51781 9.70848 7.51781H26.291C26.5954 7.51781 26.8422 7.27101 26.8422 6.96656V6.94969C26.8422 6.64524 26.5954 6.39844 26.291 6.39844Z" fill="#CD27AC"/>
<path d="M26.2937 10.3359H9.70555C9.4011 10.3359 9.1543 10.5827 9.1543 10.8872V10.9041C9.1543 11.2085 9.4011 11.4553 9.70555 11.4553H26.2937C26.5981 11.4553 26.8449 11.2085 26.8449 10.9041V10.8872C26.8449 10.5827 26.5981 10.3359 26.2937 10.3359Z" fill="#CD27AC"/>
<path d="M26.2937 14.2734H9.70555C9.4011 14.2734 9.1543 14.5202 9.1543 14.8247V14.8416C9.1543 15.146 9.4011 15.3928 9.70555 15.3928H26.2937C26.5981 15.3928 26.8449 15.146 26.8449 14.8416V14.8247C26.8449 14.5202 26.5981 14.2734 26.2937 14.2734Z" fill="#CD27AC"/>
<path d="M18.3435 21.7771C18.3435 21.7671 18.3455 21.7573 18.3493 21.748C18.3531 21.7388 18.3587 21.7305 18.3658 21.7234C18.3728 21.7164 18.3812 21.7108 18.3904 21.707C18.3996 21.7031 18.4095 21.7012 18.4195 21.7012L19.2941 21.7068C19.4117 21.7074 19.5281 21.7246 19.6366 21.7576C19.7451 21.7906 19.8436 21.8386 19.9264 21.8989C20.0092 21.9593 20.0747 22.0308 20.1192 22.1093C20.1637 22.1878 20.1863 22.2718 20.1857 22.3565V22.4915C20.1845 22.6621 20.0893 22.8251 19.9211 22.9448C19.7529 23.0645 19.5254 23.1311 19.2885 23.1299L18.4138 23.1243C18.3937 23.1243 18.3744 23.1163 18.3601 23.1021C18.3459 23.0878 18.3379 23.0685 18.3379 23.0484L18.3435 21.7771Z" fill="#CD27AC"/>
</svg>
