<svg width="36" height="36" viewBox="0 0 36 36" fill="none" xmlns="http://www.w3.org/2000/svg">
<path d="M29.9532 29.8126V33.1173C29.9532 33.2657 29.894 33.4081 29.7885 33.5131C29.683 33.618 29.5399 33.677 29.3907 33.677H6.60949C6.46031 33.677 6.31723 33.618 6.21175 33.5131C6.10626 33.4081 6.04699 33.2657 6.04699 33.1173V29.7423C6.04699 29.6486 6.00012 29.6017 5.90637 29.6017H4.4298C4.28137 29.6017 4.13901 29.5424 4.03405 29.4369C3.92908 29.3314 3.87012 29.1884 3.87012 29.0392V18.3489C3.87012 17.882 4.10449 17.6486 4.57324 17.6486H5.90637C6.00012 17.6486 6.04699 17.6017 6.04699 17.5079V2.88574C6.04699 2.73656 6.10596 2.59348 6.21092 2.48799C6.31588 2.38251 6.45824 2.32324 6.60668 2.32324H29.3936C29.542 2.32324 29.6844 2.38251 29.7893 2.48799C29.8943 2.59348 29.9532 2.73656 29.9532 2.88574V17.5079C29.9532 17.6017 30.0001 17.6486 30.0939 17.6486H31.5704C31.7189 17.6486 31.8612 17.7078 31.9662 17.8133C32.0712 17.9188 32.1301 18.0619 32.1301 18.2111V29.0026C32.1301 29.161 32.0677 29.313 31.9565 29.4252C31.8453 29.5375 31.6943 29.6009 31.5367 29.6017L30.1642 29.6045C30.0236 29.6045 29.9532 29.6739 29.9532 29.8126ZM28.8282 3.52418C28.8282 3.50329 28.8199 3.48326 28.8052 3.4685C28.7904 3.45373 28.7704 3.44543 28.7495 3.44543H7.25074C7.22986 3.44543 7.20983 3.45373 7.19506 3.4685C7.18029 3.48326 7.17199 3.50329 7.17199 3.52418V17.5698C7.17199 17.5907 7.18029 17.6107 7.19506 17.6255C7.20983 17.6403 7.22986 17.6486 7.25074 17.6486H28.7495C28.7704 17.6486 28.7904 17.6403 28.8052 17.6255C28.8199 17.6107 28.8282 17.5907 28.8282 17.5698V3.52418ZM11.2867 23.3214L12.0995 26.567C12.1239 26.6682 12.1886 26.7189 12.2936 26.7189H13.3764C13.4851 26.7189 13.5526 26.6664 13.5789 26.5614L14.3945 23.3354C14.4226 23.2248 14.4451 23.2257 14.462 23.3382C14.4695 23.3889 14.4742 23.4386 14.4761 23.4873C14.4873 24.5054 14.4892 25.5404 14.4817 26.5923C14.4817 26.6786 14.5248 26.7217 14.6111 26.7217L15.7895 26.7132C15.8589 26.7132 15.8936 26.6786 15.8936 26.6092V20.6045C15.8936 20.4639 15.8232 20.3936 15.6826 20.3936H13.9754C13.8686 20.3936 13.802 20.4451 13.7757 20.5482L12.9095 23.8192C12.8626 23.9954 12.8167 23.9954 12.7717 23.8192L11.9139 20.5792C11.882 20.4554 11.8014 20.3936 11.672 20.3936H9.98449C9.84574 20.3936 9.77637 20.4629 9.77637 20.6017V26.5782C9.77637 26.672 9.82231 26.7189 9.91418 26.7189H11.0504C11.1498 26.7189 11.1995 26.6682 11.1995 26.567L11.1967 23.3326C11.1967 23.0889 11.2267 23.0851 11.2867 23.3214ZM18.5232 24.4295C18.8757 24.4276 19.2264 24.4276 19.5751 24.4295C22.3989 24.4464 22.5479 20.4498 19.6679 20.402C18.7342 20.387 17.8276 20.3861 16.9482 20.3992C16.9129 20.3999 16.8793 20.4145 16.8546 20.4397C16.8299 20.4649 16.816 20.4989 16.8161 20.5342V26.5501C16.8161 26.6626 16.8732 26.7189 16.9876 26.7189H18.1689C18.2832 26.7189 18.3404 26.6626 18.3404 26.5501L18.3432 24.6123C18.3432 24.4904 18.4032 24.4295 18.5232 24.4295ZM25.8695 25.6389C25.8695 25.6216 25.8729 25.6046 25.8796 25.5887C25.8863 25.5728 25.8961 25.5584 25.9084 25.5464C25.9207 25.5343 25.9353 25.5249 25.9513 25.5185C25.9673 25.5122 25.9845 25.5091 26.0017 25.5095L26.4967 25.5151C26.5305 25.5151 26.563 25.5019 26.5872 25.4782C26.6114 25.4546 26.6253 25.4224 26.6261 25.3886L26.6373 24.3226C26.6373 24.3054 26.6339 24.2883 26.6272 24.2724C26.6205 24.2566 26.6107 24.2422 26.5984 24.2301C26.5861 24.2181 26.5715 24.2086 26.5555 24.2023C26.5395 24.1959 26.5223 24.1929 26.5051 24.1932L26.0045 24.2017C25.9873 24.2021 25.9701 24.199 25.9541 24.1926C25.9381 24.1863 25.9235 24.1768 25.9112 24.1648C25.8989 24.1527 25.8891 24.1384 25.8824 24.1225C25.8757 24.1066 25.8723 24.0895 25.8723 24.0723L25.8751 20.5145C25.8751 20.4802 25.8615 20.4473 25.8372 20.423C25.813 20.3987 25.7801 20.3851 25.7457 20.3851H24.7389C24.7178 20.3851 24.6971 20.3902 24.6785 20.4C24.6598 20.4098 24.6439 20.424 24.632 20.4414L22.0248 24.2551C22.0101 24.2767 22.0023 24.3022 22.0023 24.3282L21.9995 25.3773C21.9995 25.4116 22.0131 25.4445 22.0374 25.4688C22.0616 25.493 22.0946 25.5067 22.1289 25.5067L24.3451 25.5179C24.3794 25.5179 24.4123 25.5316 24.4366 25.5558C24.4609 25.5801 24.4745 25.613 24.4745 25.6473L24.4632 26.5895C24.4629 26.607 24.466 26.6243 24.4725 26.6405C24.479 26.6567 24.4888 26.6715 24.5011 26.6838C24.5135 26.6962 24.5282 26.7059 24.5444 26.7124C24.5606 26.7189 24.578 26.7221 24.5954 26.7217L25.7457 26.7161C25.7801 26.7161 25.813 26.7024 25.8372 26.6782C25.8615 26.6539 25.8751 26.621 25.8751 26.5867L25.8695 25.6389ZM28.8282 29.6776C28.8282 29.6575 28.8202 29.6382 28.806 29.6239C28.7918 29.6097 28.7724 29.6017 28.7523 29.6017H7.24793C7.22779 29.6017 7.20847 29.6097 7.19423 29.6239C7.17999 29.6382 7.17199 29.6575 7.17199 29.6776V32.4789C7.17199 32.499 7.17999 32.5183 7.19423 32.5326C7.20847 32.5468 7.22779 32.5548 7.24793 32.5548H28.7523C28.7724 32.5548 28.7918 32.5468 28.806 32.5326C28.8202 32.5183 28.8282 32.499 28.8282 32.4789V29.6776Z" fill="#4C14C3"/>
<path d="M26.291 6.39844H9.70848C9.40403 6.39844 9.15723 6.64524 9.15723 6.94969V6.96656C9.15723 7.27101 9.40403 7.51781 9.70848 7.51781H26.291C26.5954 7.51781 26.8422 7.27101 26.8422 6.96656V6.94969C26.8422 6.64524 26.5954 6.39844 26.291 6.39844Z" fill="#4C14C3"/>
<path d="M26.2937 10.3359H9.70555C9.4011 10.3359 9.1543 10.5827 9.1543 10.8872V10.9041C9.1543 11.2085 9.4011 11.4553 9.70555 11.4553H26.2937C26.5981 11.4553 26.8449 11.2085 26.8449 10.9041V10.8872C26.8449 10.5827 26.5981 10.3359 26.2937 10.3359Z" fill="#4C14C3"/>
<path d="M26.2937 14.2734H9.70555C9.4011 14.2734 9.1543 14.5202 9.1543 14.8247V14.8416C9.1543 15.146 9.4011 15.3928 9.70555 15.3928H26.2937C26.5981 15.3928 26.8449 15.146 26.8449 14.8416V14.8247C26.8449 14.5202 26.5981 14.2734 26.2937 14.2734Z" fill="#4C14C3"/>
<path d="M18.3435 21.7771C18.3435 21.7671 18.3455 21.7573 18.3493 21.748C18.3531 21.7388 18.3587 21.7305 18.3658 21.7234C18.3728 21.7164 18.3812 21.7108 18.3904 21.707C18.3996 21.7031 18.4095 21.7012 18.4195 21.7012L19.2913 21.7068C19.4093 21.7074 19.5261 21.7246 19.6349 21.7576C19.7437 21.7906 19.8425 21.8386 19.9256 21.8989C20.0086 21.9593 20.0744 22.0308 20.119 22.1093C20.1637 22.1878 20.1863 22.2718 20.1857 22.3565V22.4915C20.1845 22.6621 20.089 22.8251 19.9203 22.9448C19.7516 23.0645 19.5233 23.1311 19.2857 23.1299L18.4138 23.1243C18.3937 23.1243 18.3744 23.1163 18.3601 23.1021C18.3459 23.0878 18.3379 23.0685 18.3379 23.0484L18.3435 21.7771Z" fill="#4C14C3"/>
<path d="M24.3281 22.9389C24.4162 22.802 24.4612 22.8151 24.4631 22.9783L24.4716 24.0133C24.4716 24.1333 24.4116 24.1933 24.2916 24.1933L23.6953 24.1905C23.5716 24.1905 23.5434 24.1389 23.6109 24.0358L24.3281 22.9389Z" fill="#4C14C3"/>
</svg>
