<svg width="36" height="36" viewBox="0 0 36 36" fill="none" xmlns="http://www.w3.org/2000/svg">
<g clip-path="url(#clip0_147_9045)">
<path fill-rule="evenodd" clip-rule="evenodd" d="M20.379 3C21.0833 3.00017 21.7651 3.24815 22.305 3.7005L22.5 3.879L29.121 10.5C29.619 10.998 29.9259 11.6554 29.988 12.357L30 12.621V30C30.0002 30.7569 29.7144 31.4858 29.1998 32.0408C28.6851 32.5958 27.9797 32.9357 27.225 32.9925L27 33H9C8.24314 33.0002 7.51415 32.7144 6.95918 32.1998C6.40421 31.6851 6.06427 30.9797 6.0075 30.225L6 30V6C5.99976 5.24314 6.28561 4.51415 6.80025 3.95918C7.31488 3.40421 8.02027 3.06426 8.775 3.0075L9 3H20.379ZM18 6H9V30H27V15H20.25C19.6907 15 19.1514 14.7916 18.7374 14.4156C18.3233 14.0395 18.0642 13.5227 18.0105 12.966L18 12.75V6ZM21 6.621V12H26.379L21 6.621Z" fill="#1C414F"/>
<path d="M11.5391 22.8243V25.5996H12.0314H12.5236V24.615V23.6305H13.0098C13.9328 23.6305 14.5913 23.2982 14.8866 22.6889C15.2497 21.9444 15.1389 21.1936 14.5974 20.6521C14.1174 20.1783 13.8774 20.1106 12.6036 20.0737L11.5391 20.049V22.8243ZM13.4775 20.8675C14.222 21.0705 14.4313 22.1044 13.8467 22.6889C13.6498 22.8859 13.6374 22.892 13.0836 22.892H12.5236V21.8459V20.7998H12.8806C13.0713 20.7998 13.3421 20.8306 13.4775 20.8675Z" fill="#1C414F"/>
<path d="M16.0928 22.8363V25.6055L17.4343 25.587L18.7696 25.5685L19.1757 25.3778C19.9819 24.9963 20.3818 24.3563 20.5234 23.2363C20.6834 21.9256 20.1849 20.8856 19.1388 20.3749C18.665 20.1411 18.0989 20.0611 16.9112 20.0611H16.0928V22.8363ZM18.5111 20.9841C19.3111 21.2856 19.6373 21.9687 19.5265 23.1194C19.4711 23.7717 19.3234 24.1594 19.0157 24.467C18.6958 24.7809 18.4742 24.8547 17.6496 24.904L17.0158 24.9409V22.861V20.781L17.6004 20.8241C17.9327 20.8487 18.3265 20.9164 18.5111 20.9841Z" fill="#1C414F"/>
<path d="M21.8154 22.8305V25.5996H22.277H22.7385V24.3689V23.1382H23.9077H25.0768V22.7997V22.4613H23.9077H22.7385V21.6305V20.7998H24H25.2615V20.4306V20.0613H23.5384H21.8154V22.8305Z" fill="#1C414F"/>
</g>
<defs>
<clipPath id="clip0_147_9045">
<rect width="36" height="36" fill="white"/>
</clipPath>
</defs>
</svg>
