<svg width="36" height="36" viewBox="0 0 36 36" fill="none" xmlns="http://www.w3.org/2000/svg">
<path d="M26.4178 10.0519H9.83531C9.52931 10.0519 9.28125 10.2999 9.28125 10.6059V10.6228C9.28125 10.9288 9.52931 11.1769 9.83531 11.1769H26.4178C26.7238 11.1769 26.9719 10.9288 26.9719 10.6228V10.6059C26.9719 10.2999 26.7238 10.0519 26.4178 10.0519Z" fill="#2BB231"/>
<path d="M26.4178 13.9922H9.83531C9.52931 13.9922 9.28125 14.2402 9.28125 14.5463V14.5575C9.28125 14.8635 9.52931 15.1116 9.83531 15.1116H26.4178C26.7238 15.1116 26.9719 14.8635 26.9719 14.5575V14.5463C26.9719 14.2402 26.7238 13.9922 26.4178 13.9922Z" fill="#2BB231"/>
<path d="M10.9704 24.0548V21.6595H11.9276C12.7354 21.6595 13.2023 22.0891 13.2023 22.8549C13.2023 23.6253 12.7307 24.0548 11.9229 24.0548H10.9704Z" fill="#2BB231"/>
<path d="M16.8816 26.114V21.7062H17.8761C19.1181 21.7062 19.8185 22.4813 19.8185 23.8914C19.8185 25.3482 19.1368 26.114 17.8761 26.114H16.8816Z" fill="#2BB231"/>
<path fill-rule="evenodd" clip-rule="evenodd" d="M5.90625 17.7188H4.5C4.18934 17.7188 3.9375 17.9706 3.9375 18.2812V28.9688C3.9375 29.2794 4.18934 29.5312 4.5 29.5312H5.90625V32.9062C5.90625 33.3722 6.28401 33.75 6.75 33.75H29.25C29.716 33.75 30.0938 33.3722 30.0938 32.9062V29.5312H31.5C31.8107 29.5312 32.0625 29.2794 32.0625 28.9688V18.2812C32.0625 17.9706 31.8107 17.7188 31.5 17.7188H30.0938V3.09375C30.0938 2.62776 29.716 2.25 29.25 2.25H6.75C6.28401 2.25 5.90625 2.62776 5.90625 3.09375V17.7188ZM7.03125 17.7188V3.375H28.9688V17.7188H7.03125ZM28.9688 29.5312V32.625H7.03125V29.5312H28.9688ZM12.3011 20.5436H9.5603V27.2812H10.9704V25.1568H12.2311C13.6505 25.1568 14.6357 24.2323 14.6357 22.8502C14.6357 21.4634 13.6832 20.5436 12.3011 20.5436ZM18.0442 20.5436H15.4715V27.2812H18.0442C20.066 27.2812 21.2566 26.0252 21.2566 23.8867C21.2566 21.7483 20.066 20.5436 18.0442 20.5436ZM23.5772 27.2812H22.1671V20.5436H26.5795V21.7062H23.5772V23.5132H26.318V24.6292H23.5772V27.2812Z" fill="#2BB231"/>
<path d="M26.4178 6.1875H9.83531C9.52931 6.1875 9.28125 6.43556 9.28125 6.74156V6.75844C9.28125 7.06444 9.52931 7.3125 9.83531 7.3125H26.4178C26.7238 7.3125 26.9719 7.06444 26.9719 6.75844V6.74156C26.9719 6.43556 26.7238 6.1875 26.4178 6.1875Z" fill="#2BB231"/>
</svg>
