<svg width="24" height="25" viewBox="0 0 24 25" fill="none" xmlns="http://www.w3.org/2000/svg">
<path d="M17.6119 7.20125H6.55688C6.35287 7.20125 6.1875 7.36662 6.1875 7.57062V7.58187C6.1875 7.78587 6.35287 7.95125 6.55688 7.95125H17.6119C17.8159 7.95125 17.9812 7.78587 17.9812 7.58187V7.57062C17.9812 7.36662 17.8159 7.20125 17.6119 7.20125Z" fill="#E5502F"/>
<path d="M17.6119 9.82812H6.55688C6.35287 9.82812 6.1875 9.9935 6.1875 10.1975V10.205C6.1875 10.409 6.35287 10.5744 6.55688 10.5744H17.6119C17.8159 10.5744 17.9812 10.409 17.9812 10.205V10.1975C17.9812 9.9935 17.8159 9.82812 17.6119 9.82812Z" fill="#E5502F"/>
<path fill-rule="evenodd" clip-rule="evenodd" d="M4.6875 2.75V12.3125H19.3125V2.75H4.6875ZM3 12.3125H3.9375V2.5625C3.9375 2.25184 4.18934 2 4.5 2H19.5C19.8107 2 20.0625 2.25184 20.0625 2.5625V12.3125H21C21.2071 12.3125 21.375 12.4804 21.375 12.6875V19.8125C21.375 20.0196 21.2071 20.1875 21 20.1875H20.0625V22.4375C20.0625 22.7482 19.8107 23 19.5 23H4.5C4.18934 23 3.9375 22.7482 3.9375 22.4375V20.1875H3C2.79289 20.1875 2.625 20.0196 2.625 19.8125V12.6875C2.625 12.4804 2.79289 12.3125 3 12.3125ZM19.3125 22.25V20.1875H4.6875V22.25H19.3125ZM8.20074 14.1957H6.37354V18.6875H7.3136V17.2712H8.15405C9.10034 17.2712 9.75714 16.6548 9.75714 15.7335C9.75714 14.809 9.12213 14.1957 8.20074 14.1957ZM7.3136 16.5366V14.9397H7.95172C8.49023 14.9397 8.80151 15.2261 8.80151 15.7366C8.80151 16.2502 8.48712 16.5366 7.94861 16.5366H7.3136ZM12.1415 14.1957H10.3143V18.6875H11.2544V17.2712H12.0948C13.0411 17.2712 13.6979 16.6548 13.6979 15.7335C13.6979 14.809 13.0629 14.1957 12.1415 14.1957ZM11.2544 16.5366V14.9397H11.8925C12.431 14.9397 12.7423 15.2261 12.7423 15.7366C12.7423 16.2502 12.4279 16.5366 11.8894 16.5366H11.2544ZM15.329 18.6875H16.2691V14.9708H17.5703V14.1957H14.031V14.9708H15.329V18.6875Z" fill="#E5502F"/>
<path d="M17.6119 4.625H6.55688C6.35287 4.625 6.1875 4.79037 6.1875 4.99437V5.00562C6.1875 5.20963 6.35287 5.375 6.55688 5.375H17.6119C17.8159 5.375 17.9812 5.20963 17.9812 5.00562V4.99437C17.9812 4.79037 17.8159 4.625 17.6119 4.625Z" fill="#E5502F"/>
</svg>
