<svg width="24" height="25" viewBox="0 0 24 25" fill="none" xmlns="http://www.w3.org/2000/svg">
<g clip-path="url(#clip0_147_9425)">
<path fill-rule="evenodd" clip-rule="evenodd" d="M13.586 2.5C14.0556 2.50011 14.5101 2.66543 14.87 2.967L15 3.086L19.414 7.5C19.746 7.83202 19.9506 8.27028 19.992 8.738L20 8.914V20.5C20.0002 21.0046 19.8096 21.4906 19.4665 21.8605C19.1234 22.2305 18.6532 22.4572 18.15 22.495L18 22.5H6C5.49542 22.5002 5.00943 22.3096 4.63945 21.9665C4.26947 21.6234 4.04284 21.1532 4.005 20.65L4 20.5V4.5C3.99984 3.99542 4.19041 3.50943 4.5335 3.13945C4.87659 2.76947 5.34684 2.54284 5.85 2.505L6 2.5H13.586ZM12 4.5H6V20.5H18V10.5H13.5C13.1271 10.5 12.7676 10.3611 12.4916 10.1104C12.2156 9.85968 12.0428 9.51516 12.007 9.144L12 9V4.5ZM12.5 11.5C13.163 11.5 13.7989 11.7634 14.2678 12.2322C14.7366 12.7011 15 13.337 15 14C15 14.663 14.7366 15.2989 14.2678 15.7678C13.7989 16.2366 13.163 16.5 12.5 16.5H11V17.5C11 17.7652 10.8946 18.0196 10.7071 18.2071C10.5196 18.3946 10.2652 18.5 10 18.5C9.73478 18.5 9.48043 18.3946 9.29289 18.2071C9.10536 18.0196 9 17.7652 9 17.5V12.6C9 12.3083 9.11589 12.0285 9.32218 11.8222C9.52847 11.6159 9.80826 11.5 10.1 11.5H12.5ZM12.5 13.5H11V14.5H12.5C12.6249 14.5002 12.7455 14.4537 12.8378 14.3695C12.9301 14.2853 12.9876 14.1696 12.9989 14.0452C13.0102 13.9207 12.9745 13.7966 12.8988 13.6972C12.8231 13.5977 12.7129 13.5303 12.59 13.508L12.5 13.5ZM14 4.914V8.5H17.586L14 4.914Z" fill="#1C414F"/>
</g>
<defs>
<clipPath id="clip0_147_9425">
<rect width="24" height="24" fill="white" transform="translate(0 0.5)"/>
</clipPath>
</defs>
</svg>
