<svg width="24" height="24" viewBox="0 0 24 24" fill="none" xmlns="http://www.w3.org/2000/svg">
<g clip-path="url(#clip0_190_362)">
<path d="M20.364 11.2929C20.5514 11.4805 20.6567 11.7348 20.6567 11.9999C20.6567 12.2651 20.5514 12.5194 20.364 12.7069L14.707 18.3639C14.5183 18.5461 14.2657 18.6469 14.0036 18.6446C13.7414 18.6423 13.4905 18.5372 13.3051 18.3518C13.1197 18.1663 13.0146 17.9155 13.0123 17.6533C13.01 17.3911 13.1108 17.1385 13.293 16.9499L17.243 12.9999H3.99995C3.73474 12.9999 3.48038 12.8946 3.29284 12.707C3.10531 12.5195 2.99995 12.2652 2.99995 11.9999C2.99995 11.7347 3.10531 11.4804 3.29284 11.2928C3.48038 11.1053 3.73474 10.9999 3.99995 10.9999H17.243L13.293 7.04994C13.1108 6.86133 13.01 6.60873 13.0123 6.34653C13.0146 6.08434 13.1197 5.83353 13.3051 5.64812C13.4905 5.46271 13.7414 5.35754 14.0036 5.35526C14.2657 5.35298 14.5183 5.45378 14.707 5.63594L20.364 11.2929Z" fill="#2BB231"/>
</g>
<defs>
<clipPath id="clip0_190_362">
<rect width="24" height="24" fill="white" transform="matrix(-1 0 0 1 24 0)"/>
</clipPath>
</defs>
</svg>
