<svg width="24" height="25" viewBox="0 0 24 25" fill="none" xmlns="http://www.w3.org/2000/svg">
<g clip-path="url(#clip0_147_8346)">
<path d="M20.364 11.7932C20.5514 11.9807 20.6567 12.235 20.6567 12.5002C20.6567 12.7653 20.5514 13.0197 20.364 13.2072L14.707 18.8642C14.5183 19.0463 14.2657 19.1471 14.0036 19.1449C13.7414 19.1426 13.4905 19.0374 13.3051 18.852C13.1197 18.6666 13.0146 18.4158 13.0123 18.1536C13.01 17.8914 13.1108 17.6388 13.293 17.4502L17.243 13.5002H3.99995C3.73474 13.5002 3.48038 13.3948 3.29284 13.2073C3.10531 13.0198 2.99995 12.7654 2.99995 12.5002C2.99995 12.235 3.10531 11.9806 3.29284 11.7931C3.48038 11.6055 3.73474 11.5002 3.99995 11.5002H17.243L13.293 7.55018C13.1108 7.36158 13.01 7.10898 13.0123 6.84678C13.0146 6.58458 13.1197 6.33377 13.3051 6.14836C13.4905 5.96295 13.7414 5.85778 14.0036 5.85551C14.2657 5.85323 14.5183 5.95402 14.707 6.13618L20.364 11.7932Z" fill="#172F38"/>
</g>
<defs>
<clipPath id="clip0_147_8346">
<rect width="24" height="24" fill="white" transform="matrix(-1 0 0 1 24 0.5)"/>
</clipPath>
</defs>
</svg>
