<svg width="16" height="16" viewBox="0 0 16 16" fill="none" xmlns="http://www.w3.org/2000/svg">
<g clip-path="url(#clip0_373_10572)">
<path fill-rule="evenodd" clip-rule="evenodd" d="M12.6669 12.6668C12.8368 12.667 13.0002 12.732 13.1238 12.8487C13.2473 12.9653 13.3217 13.1248 13.3316 13.2944C13.3416 13.464 13.2864 13.631 13.1773 13.7613C13.0683 13.8916 12.9136 13.9754 12.7449 13.9955L12.6669 14.0001H8.00019C7.83027 13.9999 7.66683 13.9349 7.54328 13.8182C7.41972 13.7016 7.34537 13.5422 7.33541 13.3725C7.32545 13.2029 7.38064 13.0359 7.4897 12.9056C7.59876 12.7753 7.75346 12.6915 7.92219 12.6715L8.00019 12.6668H12.6669ZM10.7309 2.91212C11.0362 2.60699 11.448 2.43221 11.8795 2.42458C12.3111 2.41694 12.7288 2.57705 13.0448 2.87119C13.3607 3.16534 13.5501 3.57058 13.5733 4.00161C13.5964 4.43264 13.4514 4.85583 13.1689 5.18212L13.0875 5.26879L5.82352 12.5335C5.76004 12.597 5.68828 12.6517 5.61019 12.6961L5.53019 12.7361L2.99419 13.8895C2.45552 14.1341 1.90219 13.6115 2.08419 13.0728L2.11086 13.0061L3.26419 10.4695C3.30116 10.3879 3.34892 10.3116 3.40619 10.2428L3.46619 10.1761L10.7309 2.91212ZM12.1449 3.85479C12.0896 3.79967 12.0168 3.76568 11.9391 3.75874C11.8613 3.75179 11.7837 3.77234 11.7195 3.81679L11.6735 3.85479L4.45219 11.0761L4.05952 11.9408L4.92352 11.5475L12.1449 4.32679C12.1759 4.29582 12.2005 4.25904 12.2173 4.21854C12.2341 4.17805 12.2428 4.13463 12.2428 4.09079C12.2428 4.04694 12.2341 4.00353 12.2173 3.96303C12.2005 3.92254 12.1759 3.88575 12.1449 3.85479Z" fill="white"/>
</g>
<defs>
<clipPath id="clip0_373_10572">
<rect width="16" height="16" fill="white"/>
</clipPath>
</defs>
</svg>
