<svg width="16" height="17" viewBox="0 0 16 17" fill="none" xmlns="http://www.w3.org/2000/svg">
<g clip-path="url(#clip0_195_5732)">
<path fill-rule="evenodd" clip-rule="evenodd" d="M12.6669 13.1668C12.8368 13.167 13.0002 13.232 13.1238 13.3487C13.2473 13.4653 13.3217 13.6248 13.3316 13.7944C13.3416 13.964 13.2864 14.131 13.1773 14.2613C13.0683 14.3916 12.9136 14.4754 12.7449 14.4955L12.6669 14.5001H8.00019C7.83027 14.4999 7.66683 14.4349 7.54328 14.3182C7.41972 14.2016 7.34537 14.0422 7.33541 13.8725C7.32545 13.7029 7.38064 13.5359 7.4897 13.4056C7.59876 13.2753 7.75346 13.1915 7.92219 13.1715L8.00019 13.1668H12.6669ZM10.7309 3.41212C11.0362 3.10699 11.448 2.93221 11.8795 2.92458C12.3111 2.91694 12.7288 3.07705 13.0448 3.37119C13.3607 3.66534 13.5501 4.07058 13.5733 4.50161C13.5964 4.93264 13.4514 5.35583 13.1689 5.68212L13.0875 5.76879L5.82352 13.0335C5.76004 13.097 5.68828 13.1517 5.61019 13.1961L5.53019 13.2361L2.99419 14.3895C2.45552 14.6341 1.90219 14.1115 2.08419 13.5728L2.11086 13.5061L3.26419 10.9695C3.30116 10.8879 3.34892 10.8116 3.40619 10.7428L3.46619 10.6761L10.7309 3.41212ZM12.1449 4.35479C12.0896 4.29967 12.0168 4.26568 11.9391 4.25874C11.8613 4.25179 11.7837 4.27234 11.7195 4.31679L11.6735 4.35479L4.45219 11.5761L4.05952 12.4408L4.92352 12.0475L12.1449 4.82679C12.1759 4.79582 12.2005 4.75904 12.2173 4.71854C12.2341 4.67805 12.2428 4.63463 12.2428 4.59079C12.2428 4.54694 12.2341 4.50353 12.2173 4.46303C12.2005 4.42254 12.1759 4.38575 12.1449 4.35479Z" fill="#2BB231"/>
</g>
<defs>
<clipPath id="clip0_195_5732">
<rect width="16" height="16" fill="white" transform="translate(0 0.5)"/>
</clipPath>
</defs>
</svg>
