<svg width="16" height="17" viewBox="0 0 16 17" fill="none" xmlns="http://www.w3.org/2000/svg">
<path d="M1.33352 8.55346C1.32952 7.9788 1.94018 7.64946 2.41218 7.90346L2.47552 7.94213L4.26085 9.1448C4.90885 9.58146 4.51218 10.5735 3.77152 10.4828L3.69352 10.4695L2.98485 10.3135C3.34505 11.31 3.99388 12.1767 4.84861 12.8031C5.70334 13.4295 6.72525 13.7871 7.78403 13.8303C8.84281 13.8736 9.89049 13.6006 10.7935 13.046C11.6965 12.4915 12.4139 11.6806 12.8542 10.7168C12.9299 10.5599 13.064 10.4388 13.2278 10.3795C13.3916 10.3203 13.5721 10.3275 13.7307 10.3996C13.8893 10.4717 14.0133 10.6031 14.0763 10.7656C14.1392 10.928 14.1361 11.1086 14.0675 11.2688C12.7428 14.1821 9.47018 15.7975 6.27618 14.9415C4.867 14.5639 3.6205 13.7347 2.72774 12.5809C1.83498 11.427 1.34522 10.0123 1.33352 8.55346ZM1.93552 5.7348C3.26018 2.82146 6.53285 1.2068 9.72685 2.06213C11.136 2.43954 12.3825 3.26865 13.2752 4.42236C14.168 5.57607 14.6578 6.99072 14.6695 8.44946C14.6742 9.0248 14.0628 9.3548 13.5915 9.10013L13.5275 9.06146L11.7422 7.8588C11.0942 7.42213 11.4908 6.43013 12.2315 6.5208L12.3095 6.53413L13.0182 6.69013C12.658 5.69356 12.0092 4.82685 11.1544 4.20049C10.2997 3.57414 9.27778 3.21653 8.219 3.17326C7.16022 3.12999 6.11254 3.40302 5.20955 3.95754C4.30655 4.51206 3.58916 5.32294 3.14885 6.2868C3.1139 6.36844 3.06299 6.44227 2.99911 6.50396C2.93523 6.56566 2.85966 6.61396 2.77685 6.64605C2.69405 6.67814 2.60566 6.69336 2.51689 6.69081C2.42812 6.68827 2.34075 6.66801 2.25991 6.63124C2.17908 6.59446 2.10641 6.54191 2.04616 6.47666C1.98592 6.41141 1.93932 6.33478 1.9091 6.25127C1.87888 6.16776 1.86565 6.07906 1.87019 5.99037C1.87472 5.90168 1.89693 5.81478 1.93552 5.7348Z" fill="#2BB231"/>
</svg>
