<svg width="24" height="25" viewBox="0 0 24 25" fill="none" xmlns="http://www.w3.org/2000/svg">
<g clip-path="url(#clip0_147_9920)">
<path fill-rule="evenodd" clip-rule="evenodd" d="M13.586 2.5C14.0556 2.50011 14.5101 2.66543 14.87 2.967L15 3.086L19.414 7.5C19.746 7.83202 19.9506 8.27028 19.992 8.738L20 8.914V20.5C20.0002 21.0046 19.8096 21.4906 19.4665 21.8605C19.1234 22.2305 18.6532 22.4572 18.15 22.495L18 22.5H6C5.49542 22.5002 5.00943 22.3096 4.63945 21.9665C4.26947 21.6234 4.04284 21.1532 4.005 20.65L4 20.5V4.5C3.99984 3.99542 4.19041 3.50943 4.5335 3.13945C4.87659 2.76947 5.34684 2.54284 5.85 2.505L6 2.5H13.586ZM12 4.5H6V20.5H18V10.5H13.5C13.1271 10.5 12.7676 10.3611 12.4916 10.1104C12.2156 9.85968 12.0428 9.51516 12.007 9.144L12 9V4.5ZM14 4.914V8.5H17.586L14 4.914Z" fill="#1C414F"/>
<circle cx="12" cy="15.5" r="3.4" stroke="#1C414F" stroke-width="1.2"/>
<path d="M10.9004 16.7765V14.4237C10.9004 14.275 11.0569 14.1783 11.1898 14.2448L13.5426 15.4212C13.69 15.4949 13.69 15.7053 13.5426 15.779L11.1898 16.9554C11.0569 17.0219 10.9004 16.9252 10.9004 16.7765Z" stroke="#1C414F" stroke-width="0.8"/>
</g>
<defs>
<clipPath id="clip0_147_9920">
<rect width="24" height="24" fill="white" transform="translate(0 0.5)"/>
</clipPath>
</defs>
</svg>
