<svg width="24" height="25" viewBox="0 0 24 25" fill="none" xmlns="http://www.w3.org/2000/svg">
<g clip-path="url(#clip0_147_10047)">
<path fill-rule="evenodd" clip-rule="evenodd" d="M13.586 2.5C14.0556 2.50011 14.5101 2.66543 14.87 2.967L15 3.086L19.414 7.5C19.746 7.83202 19.9506 8.27028 19.992 8.738L20 8.914V20.5C20.0002 21.0046 19.8096 21.4906 19.4665 21.8605C19.1234 22.2305 18.6532 22.4572 18.15 22.495L18 22.5H6C5.49542 22.5002 5.00943 22.3096 4.63945 21.9665C4.26947 21.6234 4.04284 21.1532 4.005 20.65L4 20.5V4.5C3.99984 3.99542 4.19041 3.50943 4.5335 3.13945C4.87659 2.76947 5.34684 2.54284 5.85 2.505L6 2.5H13.586ZM12 4.5H6V20.5H18V10.5H13.5C13.1271 10.5 12.7676 10.3611 12.4916 10.1104C12.2156 9.85968 12.0428 9.51516 12.007 9.144L12 9V4.5ZM14 4.914V8.5H17.586L14 4.914Z" fill="#1C414F"/>
<path d="M7.69238 15.7162V17.5664H8.02058H8.34877V16.91V16.2536H8.67286C9.28822 16.2536 9.72718 16.0321 9.9241 15.626C10.1661 15.1296 10.0923 14.6291 9.73128 14.2681C9.41129 13.9522 9.2513 13.9071 8.4021 13.8824L7.69238 13.866V15.7162ZM8.98464 14.4116C9.48104 14.547 9.62052 15.2362 9.23079 15.626C9.09951 15.7572 9.09131 15.7613 8.72209 15.7613H8.34877V15.0639V14.3665H8.58671C8.71388 14.3665 8.89439 14.387 8.98464 14.4116Z" fill="#1C414F"/>
<path d="M10.7285 15.7242V17.5703L11.6228 17.558L12.5131 17.5457L12.7838 17.4185C13.3212 17.1642 13.5879 16.7375 13.6823 15.9909C13.7889 15.1171 13.4566 14.4238 12.7592 14.0833C12.4433 13.9274 12.0659 13.874 11.2741 13.874H10.7285V15.7242ZM12.3408 14.4894C12.8741 14.6904 13.0915 15.1458 13.0177 15.9129C12.9807 16.3478 12.8823 16.6062 12.6772 16.8114C12.4638 17.0206 12.3161 17.0698 11.7664 17.1026L11.3439 17.1273V15.7406V14.354L11.7336 14.3827C11.9551 14.3991 12.2177 14.4443 12.3408 14.4894Z" fill="#1C414F"/>
<path d="M14.5439 15.7203V17.5664H14.8516H15.1593V16.7459V15.9254H15.9388H16.7182V15.6998V15.4742H15.9388H15.1593V14.9203V14.3665H16.0003H16.8413V14.1204V13.8742H15.6926H14.5439V15.7203Z" fill="#1C414F"/>
</g>
<defs>
<clipPath id="clip0_147_10047">
<rect width="24" height="24" fill="white" transform="translate(0 0.5)"/>
</clipPath>
</defs>
</svg>
